<?xml version="1.0" encoding="utf-8"?>
<!-- Generator: Adobe Illustrator 18.0.0, SVG Export Plug-In . SVG Version: 6.00 Build 0)  -->
<!DOCTYPE svg PUBLIC "-//W3C//DTD SVG 1.1//EN" "http://www.w3.org/Graphics/SVG/1.1/DTD/svg11.dtd">
<svg version="1.1" id="Layer_1" xmlns="http://www.w3.org/2000/svg" xmlns:xlink="http://www.w3.org/1999/xlink" x="0px" y="0px"
	 viewBox="0 0 143.2 260.2" enable-background="new 0 0 143.2 260.2" xml:space="preserve">
<g>
	<g>
		<g>
			<g>
				<path fill="#ECC5A2" stroke="#FFFFFF" stroke-width="3" stroke-miterlimit="10" d="M43.6,233.2c-0.7-1.4-8.3-4.8-8.3-4.8
					s-1.5-0.8-2.6-1.1c-1.1-0.2-4.6,0.4-5.5,0.6c-0.9,0.2-1.5,0.4-1.5,0.4s-1.1,0.7-1.3,1.1c-0.2,0.4-0.1,1,0,1.7
					c0.1,0.7,0.9,1.7,0.9,1.7l1.5,2.2c0,0,1,1.6,0.2,1c-0.9-0.6-1.5-1.1-1.5-1.1s-2.7-2.1-3.4-2.3c-1.2-0.3-1.2-0.4-3.2-0.3
					c-2,0.1-5,1.1-6.9,2.7c-2,1.6-4.8,3.9-4.8,3.9s-1.7,1.9-1.8,3.4c-0.2,1.5-0.4,2.3,0,3.6c0.4,1.3,2.5,2.5,2.5,2.5s2.2,2.2,3.2,3
					c1,0.8,4.4,1.4,5.5,1.8c1.2,0.4,4.3,1.4,5.9,1.8c1.6,0.4,6-0.6,6-0.6s3.3-0.6,4.9-1.4c1.6-0.8,1.6-0.8,2.8-2.3
					c1.2-1.5,1.2-1.5,2.3-3.1c1.1-1.6,2.3-1.3,3.6-1.6c1.3-0.3,3.4-0.6,3.9-0.9c0.6-0.3,0.8-0.8,1.3-2.2c0.5-1.4,0-2.6,0-2.6
					s-0.8-1.3-1.8-3.4C44.3,234.6,44.3,234.6,43.6,233.2z"/>
				<path fill="#13110C" stroke="#FFFFFF" stroke-width="3" stroke-miterlimit="10" d="M23.3,255.2L23.3,255.2c-0.4,0-0.8,0-1.1-0.1
					c-1.4-0.4-4-1.2-5.4-1.7c-0.2-0.1-0.4-0.1-0.5-0.2c-0.3-0.1-0.9-0.2-1.5-0.4c-1.5-0.4-3.3-0.8-4.1-1.4c-1-0.8-3-2.8-3.2-3
					c-0.2-0.1-2.1-1.3-2.5-2.5c-0.3-1.1-0.2-1.8-0.1-2.8c0-0.2,0.1-0.5,0.1-0.8c0.2-1.5,1.8-3.3,1.9-3.4l0,0c0,0,2.8-2.3,4.8-3.9
					c2.1-1.7,5.1-2.7,7-2.7c0.5,0,0.9,0,1.1,0c0.8,0,1.1,0.1,1.8,0.3c0.1,0,0.2,0.1,0.3,0.1c0.7,0.2,3.4,2.3,3.5,2.3l0,0
					c0,0,0.7,0.5,1.5,1.1c0.1,0,0.1,0.1,0.1,0.1c-0.1-0.2-0.3-0.6-0.5-0.9l-1.5-2.2c-0.1-0.1-0.8-1-0.9-1.7c0-0.1,0-0.2,0-0.3
					c-0.1-0.6-0.1-1,0.1-1.4c0.2-0.4,1.2-1,1.3-1.1l0,0l0,0c0,0,0.7-0.2,1.5-0.4c0.8-0.2,3.4-0.7,4.9-0.7c0.3,0,0.5,0,0.7,0.1
					c1.1,0.2,2.5,1,2.6,1.1c0.4,0.2,7.6,3.4,8.4,4.8c0.7,1.4,0.7,1.4,1.7,3.6c0.9,2.1,1.7,3.4,1.7,3.4l0,0c0,0.1,0.5,1.3,0,2.7
					c-0.5,1.4-0.7,2-1.3,2.3c-0.4,0.2-1.4,0.4-2.5,0.6c-0.5,0.1-1,0.2-1.5,0.3c-0.3,0.1-0.6,0.1-0.9,0.1c-0.9,0.1-1.8,0.2-2.6,1.4
					c-1.1,1.6-1.1,1.6-2.3,3.1c-1.2,1.5-1.2,1.5-2.8,2.4c-1.6,0.8-4.8,1.4-4.9,1.4C28.2,254.5,25.2,255.2,23.3,255.2z M7.1,239
					c-0.1,0.1-1.6,1.9-1.8,3.3c0,0.3-0.1,0.5-0.1,0.8c-0.1,1-0.2,1.7,0.1,2.7c0.4,1.2,2.4,2.4,2.4,2.4l0,0l0,0c0,0,2.2,2.2,3.2,3
					c0.7,0.5,2.6,1,4,1.3c0.6,0.1,1.1,0.3,1.5,0.4c0.1,0,0.3,0.1,0.5,0.2c1.4,0.5,4,1.3,5.4,1.7c0.2,0.1,0.6,0.1,1,0.1
					c1.9,0,4.9-0.6,4.9-0.7c0,0,3.3-0.6,4.8-1.4c1.6-0.8,1.6-0.8,2.8-2.3c1.2-1.5,1.2-1.5,2.3-3.1c0.9-1.3,1.9-1.4,2.8-1.5
					c0.3,0,0.6-0.1,0.8-0.1c0.4-0.1,1-0.2,1.5-0.3c1-0.2,2.1-0.4,2.4-0.6c0.5-0.3,0.7-0.7,1.2-2.2c0.4-1.3,0-2.4,0-2.5
					c-0.1-0.1-0.9-1.4-1.8-3.4c-0.9-2.2-0.9-2.2-1.7-3.6c-0.7-1.4-8.2-4.7-8.2-4.7l0,0c0,0-1.5-0.8-2.6-1c-0.2,0-0.4-0.1-0.7-0.1
					c-1.4,0-4.1,0.5-4.8,0.7c-0.8,0.2-1.4,0.4-1.5,0.4c-0.3,0.2-1.1,0.7-1.2,1c-0.2,0.3-0.1,0.7,0,1.3c0,0.1,0,0.2,0,0.3
					c0.1,0.7,0.8,1.6,0.8,1.6l0,0l1.5,2.2c0.4,0.7,0.6,1.1,0.5,1.2c0,0.1-0.1,0.1-0.2,0.1l0,0c-0.1,0-0.2-0.1-0.4-0.2
					c-0.9-0.6-1.5-1.1-1.5-1.1c-0.9-0.7-2.8-2.1-3.4-2.3c-0.1,0-0.2-0.1-0.3-0.1c-0.6-0.2-0.9-0.3-1.7-0.3c-0.3,0-0.6,0-1.1,0
					c-1.8,0.1-4.9,1-6.9,2.7C10,236.6,7.2,238.9,7.1,239z"/>
			</g>
			<g>
				<path fill="#FFFFFF" stroke="#FFFFFF" stroke-width="3" stroke-miterlimit="10" d="M53.4,40c-0.3,5.2-2.8,9.2-6.2,9
					c-3.4-0.2-4.9-4.6-4.6-9.8c0.3-5.2,2.7-7.9,6.1-7.7C52.2,31.8,53.8,34.8,53.4,40z"/>
				<path fill="#FFFFFF" stroke="#FFFFFF" stroke-width="3" stroke-miterlimit="10" d="M47.5,49.6c-0.1,0-0.2,0-0.3,0
					c-1.8-0.1-3.2-1.3-4.1-3.3c-0.8-1.8-1.1-4.2-1-7c0.2-2.6,0.8-4.6,1.9-6c1.2-1.5,2.8-2.2,4.7-2.1c1.9,0.1,3.2,1,4.1,2.6
					c0.8,1.5,1.2,3.7,1,6.4C53.6,45.7,51,49.6,47.5,49.6z M48.4,32.1c-3.1,0-5,2.6-5.3,7.2c-0.2,2.6,0.2,4.9,0.9,6.6
					c0.9,2.1,2.3,2.7,3.3,2.7c0.1,0,0.1,0,0.2,0c1.8,0,3-1.3,3.7-2.4c1-1.6,1.6-3.8,1.8-6.2c0.2-2.5-0.1-4.5-0.9-5.8
					c-0.7-1.3-1.8-2-3.3-2.1C48.6,32.1,48.5,32.1,48.4,32.1z"/>
			</g>
			<g>
				<g>
					<path fill="#ECC5A2" stroke="#FFFFFF" stroke-width="3" stroke-miterlimit="10" d="M103.7,221.7c0,0-1-0.1-1.8,0.9
						c-0.8,1-2,2.4-2,2.4l-2.7,3.5c0,0-0.9,1.9-0.9,3.2c0,1.3,0,2.8,0,2.8s-0.5,1.5,0,2.3c0.5,0.7,0.5,0.6,1,1.6
						c0.5,1,5.3,1.6,6.5,2.2c1.2,0.6,3.6,1.4,4.3,2c0.7,0.6,1.7,1.3,3.7,3.2c2,1.9,4.1,2.7,5.7,3c1.6,0.3,5,1,5,1s2.5,0.6,5.1,0.6
						c2.6,0,5.5-1.6,5.5-1.6s4.9-3.2,5.3-7.8c0.4-4.5-0.5-5.4-1.3-7.2c-0.8-1.8-2.9-3-4.6-4.3c-1.7-1.3-5.6-1.7-7.2-1.3
						c-1.6,0.4-3.6,0.8-3.6,0.8s-1.8,1.3-2.5,1c-0.8-0.3-0.4-0.3-0.9-1.1c-0.5-0.8-1.1-1.3-1.1-1.3s-10.6-5.8-7.5-4.4
						c3.1,1.3-5.1-1.7-3.6-1.4C107.8,222.1,103.7,221.7,103.7,221.7z"/>
				</g>
				<g>
					<path fill="#13120D" stroke="#FFFFFF" stroke-width="3" stroke-miterlimit="10" d="M127.6,250.5c-2.6,0-5.2-0.6-5.2-0.6
						c0,0-3.4-0.7-5-1c-2.2-0.4-4.1-1.4-5.8-3c-1.8-1.7-2.7-2.4-3.4-3c-0.1-0.1-0.2-0.2-0.3-0.3c-0.5-0.4-1.7-0.9-2.9-1.4
						c-0.5-0.2-1-0.4-1.4-0.6c-0.4-0.2-1.4-0.4-2.4-0.7c-1.9-0.4-3.8-0.9-4.2-1.6c-0.3-0.7-0.4-0.8-0.6-1.1
						c-0.1-0.1-0.2-0.2-0.3-0.4c-0.5-0.7-0.1-2.2,0-2.4v-2.7c0-1.3,0.9-3.2,0.9-3.3l0,0l2.7-3.5l2-2.4c0.7-0.9,1.5-0.9,1.8-0.9
						c0.1,0,0.1,0,0.1,0c0,0,1.4,0.1,2.2,0.2c0,0,0,0,0,0c0,0,0-0.1,0.2-0.1c0,0,0.1,0,0.2,0c0.3,0.1,0.5,0.1,0.4,0.2c0,0,0,0,0,0.1
						c0.6,0.3,1.6,0.7,2.5,1c0,0,0.1-0.1,0.1-0.1c0.1,0,0.1,0,0.6,0.2c0.8,0.4,0.8,0.4,0.8,0.5l0,0.1l-0.1,0c0,0,0,0,0,0
						c2.2,1.3,6.8,3.8,6.9,3.8l0,0c0,0,0.6,0.5,1.1,1.3c0.2,0.3,0.2,0.5,0.3,0.7c0.1,0.2,0.1,0.3,0.5,0.4c0.1,0,0.1,0,0.2,0
						c0.8,0,2.2-1,2.2-1l0,0l3.6-0.8c0.4-0.1,0.9-0.1,1.5-0.1c2.7,0,4.8,0.7,5.8,1.5c0.3,0.3,0.7,0.5,1.1,0.8c1.4,1,2.8,2.1,3.5,3.6
						c0.1,0.2,0.2,0.5,0.3,0.7c0.7,1.4,1.3,2.6,1,6.6c-0.1,1.3-0.7,3.4-2.8,5.7c-1.3,1.4-2.5,2.2-2.5,2.2l0,0
						C133.2,248.9,130.3,250.5,127.6,250.5z M97.3,228.6c-0.1,0.2-0.9,2-0.9,3.2v2.8l0,0c0,0-0.5,1.5,0,2.2c0.1,0.2,0.2,0.3,0.3,0.4
						c0.2,0.3,0.3,0.4,0.7,1.1c0.3,0.5,2.4,1.1,4,1.4c1.1,0.2,2,0.5,2.4,0.7c0.4,0.2,0.9,0.4,1.4,0.6c1.1,0.5,2.4,1,2.9,1.4
						c0.1,0.1,0.2,0.2,0.3,0.2c0.7,0.6,1.6,1.3,3.4,3c1.7,1.6,3.6,2.6,5.7,3c1.6,0.3,5,1,5,1c0,0,2.5,0.6,5.1,0.6
						c2.5,0,5.3-1.5,5.4-1.5c0.1-0.1,1.3-0.9,2.5-2.2c1.1-1.2,2.5-3.2,2.7-5.5c0.3-3.9-0.3-5-1-6.4c-0.1-0.2-0.2-0.4-0.3-0.7
						c-0.7-1.4-2.1-2.4-3.4-3.5c-0.4-0.3-0.7-0.5-1.1-0.8c-1.2-1-3.8-1.4-5.6-1.4c-0.6,0-1.1,0-1.5,0.1l-3.5,0.8
						c-0.2,0.1-1.5,1.1-2.4,1.1c-0.1,0-0.2,0-0.3,0c-0.5-0.2-0.6-0.3-0.7-0.6c0-0.1-0.1-0.3-0.3-0.6c-0.4-0.8-1-1.2-1-1.2
						c-0.4-0.2-6.5-3.6-7.8-4.4l0,0c-1.1-0.4-2.6-1-3.2-1.3l0,0c-0.8,0-2.5-0.2-2.5-0.2c0,0,0,0-0.1,0c-0.3,0-1,0.1-1.6,0.9l-2,2.4
						L97.3,228.6z"/>
				</g>
			</g>
			<g>
				<ellipse fill="#13120D" stroke="#FFFFFF" stroke-width="3" stroke-miterlimit="10" cx="46.3" cy="38.7" rx="2.5" ry="3"/>
				<path fill="#FFFFFF" stroke="#FFFFFF" stroke-width="3" stroke-miterlimit="10" d="M46.3,42.2c-1.6,0-3-1.6-3-3.5
					c0-2,1.3-3.5,3-3.5c1.6,0,3,1.6,3,3.5C49.2,40.6,47.9,42.2,46.3,42.2z M46.3,36.1c-1.1,0-2,1.1-2,2.6c0,1.4,0.9,2.6,2,2.6
					c1.1,0,2-1.1,2-2.6C48.3,37.2,47.4,36.1,46.3,36.1z"/>
			</g>
			<g>
				<path fill="#FFFFFF" stroke="#FFFFFF" stroke-width="3" stroke-miterlimit="10" d="M81.8,43.3c-0.8,5.2-4.4,8.8-7.8,8.3
					c-3.4-0.5-4-5.6-3.1-10.8c0.8-5.2,3.5-7.6,6.8-7C81.1,34.3,82.6,38.2,81.8,43.3z"/>
				<path fill="#FFFFFF" stroke="#FFFFFF" stroke-width="3" stroke-miterlimit="10" d="M74.7,52.2c-0.2,0-0.5,0-0.7-0.1
					c-1.8-0.3-3-1.7-3.5-4c-0.6-2.5-0.3-5.3,0-7.3c0.8-4.8,3.1-7.5,6.4-7.5c0.3,0,0.7,0,1,0.1c1.8,0.3,3.2,1.4,4,3.3
					c0.7,1.8,0.9,4.1,0.5,6.8c-0.4,2.4-1.4,4.6-2.8,6.2C78.1,51.3,76.3,52.2,74.7,52.2z M76.8,34.2c-2.8,0-4.8,2.4-5.4,6.7
					c-0.4,2.7-0.4,5.2,0,7c0.5,2,1.4,3.1,2.7,3.3c0.2,0,0.4,0,0.6,0c3,0,5.9-3.5,6.6-7.9c0.4-2.5,0.3-4.6-0.4-6.2
					c-0.6-1.5-1.8-2.5-3.2-2.7C77.3,34.2,77.1,34.2,76.8,34.2z"/>
			</g>
			<g>
				<path fill="#13120D" stroke="#FFFFFF" stroke-width="3" stroke-miterlimit="10" d="M76.9,40.6c0.2-1.7-0.8-3.1-2.2-3.3
					c-1.4-0.1-2.6,1.1-2.8,2.8c-0.2,1.7,0.8,3.1,2.2,3.3C75.5,43.6,76.7,42.3,76.9,40.6z"/>
				<path fill="#FFFFFF" stroke="#FFFFFF" stroke-width="3" stroke-miterlimit="10" d="M74.3,43.9L74.3,43.9c-0.1,0-0.2,0-0.3,0
					c-1.6-0.2-2.8-1.9-2.6-3.8c0.2-1.8,1.5-3.2,3.1-3.2c0.1,0,0.2,0,0.3,0c0.8,0.1,1.5,0.5,2,1.3c0.5,0.7,0.7,1.6,0.6,2.5
					C77.2,42.5,75.9,43.9,74.3,43.9z M74.5,37.8c-1,0-1.9,1-2.1,2.4c-0.1,1.4,0.6,2.6,1.7,2.7c0.1,0,0.1,0,0.2,0c1,0,1.9-1,2.1-2.3
					c0.1-0.7-0.1-1.4-0.4-1.9c-0.3-0.5-0.8-0.8-1.3-0.8C74.6,37.8,74.6,37.8,74.5,37.8z"/>
			</g>
			<g>
				<path fill="#F5DFD0" stroke="#FFFFFF" stroke-width="3" stroke-miterlimit="10" d="M55.9,55.9c2.7-4.2,7.6-4.5,9.8,0.6
					c0,0,1.1,2.4,0.1,3.2c-1,0.8-10.5,0.1-11.3,0C53.8,59.6,55.9,55.9,55.9,55.9z"/>
				<path fill="#FFFFFF" stroke="#FFFFFF" stroke-width="3" stroke-miterlimit="10" d="M62.2,60.6c-3.2,0-7.3-0.3-7.8-0.4
					c-0.2,0-0.4-0.2-0.5-0.4c-0.2-0.3-0.1-0.9,0.6-2.5c0.4-0.9,0.8-1.6,0.9-1.7l0,0c1.4-2.2,3.4-3.4,5.4-3.4c2.2,0,4.1,1.5,5.3,4.1
					c0.1,0.3,1.2,2.7,0,3.8C65.8,60.4,65.1,60.6,62.2,60.6z M54.9,59.3c1.1,0.1,4.6,0.4,7.4,0.4c2.7,0,3.2-0.2,3.2-0.3
					c0.5-0.5,0-2-0.2-2.6c-1-2.2-2.6-3.5-4.4-3.5c-1.7,0-3.4,1.1-4.6,2.9C55.5,57.5,55,58.8,54.9,59.3z"/>
			</g>
			<g>
				<path fill="#13120D" stroke="#FFFFFF" stroke-width="3" stroke-miterlimit="10" d="M60.7,60.9c-1.1,0-0.9,1.8-1.5,3.2
					c-0.4,1-1.5,1.6-1.5,1.6S56.9,66,55.6,66c-0.9,0.1-1.5,0-2.2-0.7c-0.7-0.7-3.8-3.4-3.8-3.4s-1.5-2.1-2.7-0.7
					c-1.2,1.4,1.4,1.5,2.2,1.7c0.8,0.2,3.8,3.8,4,4.4c0.2,0.6,2.4,0.6,3.1,0.5c0.6,0,1.3,0.1,1.6,0.4c0.2,0.3,0.3,0.3,0.6,0.7
					c0.3,0.4,0.2,0.9-0.2,1.6c-0.2,0.8-0.1,1.7,0.4,2.5c0.5,0.8,1.4,1,1.4,1s0.6,0.3,2,0c1.4-0.3,1.8-1.6,1.8-1.6s0.6-1.6,0-2.3
					c-0.6-0.7-0.3-1,0-1.5c0.3-0.6,1.2-0.5,1.2-0.5l1.4,0.2l3.1-0.2l4.1-1.5c0,0,2.9-1.3,2.9-1.8c0-0.6-0.7-0.8-1.2-0.6
					c-0.6,0.2-1.5,0.6-1.5,0.6s-1.8,0.7-2.4,1.1c-0.6,0.4-0.8,0.8-1.9,1.2c-1.1,0.4-2.3,0.6-3,0.4c-1.1-0.2-2.4-0.9-3.7-3.2
					C61.4,62.8,61.9,60.9,60.7,60.9z"/>
				<path fill="#FFFFFF" stroke="#FFFFFF" stroke-width="3" stroke-miterlimit="10" d="M60.7,74.7c-0.5,0-0.9-0.1-1-0.1
					c-0.2-0.1-1.1-0.3-1.6-1.2c-0.5-0.9-0.7-1.9-0.5-2.8l0-0.1l0-0.1c0.4-0.7,0.2-1,0.2-1.1c-0.2-0.2-0.2-0.3-0.3-0.4
					c-0.1-0.1-0.1-0.1-0.2-0.3c-0.1-0.1-0.4-0.2-1-0.2c-0.1,0-0.1,0-0.2,0c-0.1,0-0.3,0-0.5,0c-2.7,0-2.9-0.6-3-0.9
					c-0.2-0.6-3-3.9-3.6-4.1c-0.1,0-0.3-0.1-0.5-0.1c-0.9-0.2-2.1-0.4-2.3-1.1c-0.1-0.4,0-0.8,0.4-1.3c0.5-0.5,0.9-0.6,1.3-0.6
					c1.1,0,1.9,1.1,2.1,1.3c0.4,0.3,3.1,2.7,3.7,3.4c0.5,0.5,0.9,0.5,1.4,0.5c0.1,0,0.2,0,0.4,0c1.1-0.1,1.9-0.3,2.1-0.4
					c0.2-0.1,0.9-0.6,1.2-1.3c0.2-0.4,0.3-0.9,0.4-1.4c0.2-1,0.4-2.1,1.5-2.1c0,0,0,0,0.1,0c1,0,1.2,0.9,1.4,1.7
					c0.1,0.6,0.3,1.2,0.7,1.7l0,0l0,0c1,1.8,2.1,2.8,3.3,3l0,0l0,0c0.2,0.1,0.4,0.1,0.6,0.1c0.6,0,1.3-0.2,2.1-0.4
					c0.7-0.3,1-0.5,1.3-0.8c0.2-0.1,0.3-0.3,0.5-0.4c0.6-0.4,2.4-1.1,2.4-1.1l0,0l1.5-0.6c0.2-0.1,0.4-0.1,0.6-0.1
					c0.4,0,0.8,0.2,1.1,0.4c0.2,0.2,0.3,0.5,0.3,0.8c0,0.4-0.3,0.8-1.7,1.5c-0.7,0.4-1.4,0.7-1.5,0.7l0,0l-4.1,1.5l-3.2,0.2
					l-1.4-0.2c0,0,0,0-0.1,0c-0.2,0-0.5,0.1-0.6,0.2c0,0.1-0.1,0.2-0.1,0.2c-0.2,0.4-0.2,0.4,0.1,0.7c0.8,0.9,0.2,2.6,0.1,2.8
					c-0.1,0.2-0.6,1.6-2.2,1.9C61.5,74.6,61.1,74.7,60.7,74.7z M60.1,73.6c0,0,0.3,0.1,0.7,0.1c0.3,0,0.7,0,1-0.1
					c1.1-0.2,1.4-1.2,1.5-1.3l0,0c0.2-0.4,0.4-1.4,0.1-1.8c-0.7-0.8-0.5-1.3-0.2-1.9c0-0.1,0.1-0.1,0.1-0.2c0.2-0.5,0.8-0.8,1.5-0.8
					c0.1,0,0.1,0,0.2,0l0,0l1.2,0.1c0,0,0,0-0.1,0c-1.5-0.3-2.8-1.4-4-3.4c-0.5-0.6-0.7-1.4-0.9-2c-0.2-0.8-0.3-1-0.5-1h0
					c-0.2,0-0.4,0.3-0.5,1.3c-0.1,0.5-0.2,1.1-0.5,1.6c-0.5,1.1-1.6,1.8-1.7,1.8l0,0l0,0c0,0-1,0.3-2.4,0.4c-0.2,0-0.3,0-0.5,0
					c-0.6,0-1.3-0.1-2.1-0.8c-0.7-0.7-3.7-3.4-3.8-3.4l0,0l0,0c-0.2-0.3-0.8-1-1.4-1c-0.2,0-0.4,0.1-0.5,0.3
					c-0.2,0.2-0.2,0.3-0.2,0.3c0.1,0.2,0.6,0.3,1.6,0.5c0.2,0,0.4,0.1,0.5,0.1c0.2,0,0.7,0.2,2.5,2.2c0.5,0.6,1.6,1.9,1.8,2.4
					c0.2,0.1,0.9,0.3,2.1,0.3c0.2,0,0.4,0,0.5,0c0.1,0,0.2,0,0.2,0c0.3,0,1.3,0,1.7,0.6c0.1,0.1,0.1,0.2,0.2,0.2
					c0.1,0.1,0.2,0.2,0.4,0.5c0.4,0.6,0.4,1.2-0.1,2.1c-0.1,0.4-0.1,1.2,0.4,2c0.4,0.6,1,0.7,1,0.7L60.1,73.6L60.1,73.6z M73.7,65.1
					c-0.5,0.2-1.8,0.8-2.3,1c-0.2,0.1-0.3,0.2-0.4,0.3c-0.3,0.3-0.7,0.6-1.6,0.9c-0.2,0.1-0.4,0.1-0.6,0.2l0.4,0l4-1.5
					c1.2-0.5,2.3-1.2,2.6-1.5c0,0,0,0,0,0c-0.1-0.1-0.2-0.1-0.3-0.1c-0.1,0-0.1,0-0.2,0L73.7,65.1z"/>
			</g>
			<g>
				<path fill="#FFFFFF" stroke="#FFFFFF" stroke-width="3" stroke-miterlimit="10" d="M62.4,67.3c0,0.5-0.8,0.9-1.8,0.9
					c-1,0-1.8-0.4-1.8-0.9c0-0.5,0.8-0.9,1.8-0.9C61.6,66.5,62.4,66.8,62.4,67.3z"/>
				<path fill="#FFFFFF" stroke="#FFFFFF" stroke-width="3" stroke-miterlimit="10" d="M60.6,68.7c-1.3,0-2.2-0.6-2.2-1.4
					c0-0.8,0.9-1.4,2.2-1.4c1.3,0,2.2,0.6,2.2,1.4C62.9,68.1,61.9,68.7,60.6,68.7z M59.4,67.3c0.1,0.1,0.5,0.4,1.3,0.4
					c0.8,0,1.2-0.3,1.3-0.4c-0.1-0.1-0.5-0.4-1.3-0.4C59.9,66.9,59.4,67.2,59.4,67.3z"/>
			</g>
			<g>
				<path fill="#33387D" stroke="#FFFFFF" stroke-width="3" stroke-miterlimit="10" d="M64.7,129.1c8.2-0.3,21.8-3,22.4-3.1
					c0.6-0.1,1.6-0.4,2,0c0.4,0.4,1,1,1,1l18.2,18.5c0,0,2.4,1.8,2.4,2.7c0,0.9,0,2.9,0,2.9v8.5v1.7v1.3l13.2,63.8
					c0,0,0.1,0.7,0,1.4c-0.1,0.8-1.2,1.2-1.2,1.2l-1.9,1.2c0,0-1.4,0.8-1.9-0.3c-0.5-1.1-0.5-1.1-0.5-1.1l-1.7-1.4
					c0,0-6.4-3.8-9.1-4.8c-2.7-1-4.8-0.4-5.5,0.5c-0.7,0.9-4.3,5.3-4.3,5.3s-1.1,2.5-2.1,0.4c-2-4.1-10.8-22-10.8-22l-11-22.3
					l-3.4-6c0,0-1.1-1.2-1.7,0c-0.3,0.5-21,57-21.2,57.4c-0.2,0.3-0.6,0.1-0.6,0.1s-3.4-2-5-2.9c-1.6-0.9-7.1-4.1-7.1-4.1
					s-1.8-1-2.9-1.2c-1-0.2-5.5,0.6-5.5,0.6s-3.5,1.2-3.7,0c-0.2-1.3-0.3-1.4-0.3-1.4v-50.4l-0.6-7.7l-1.3-4.3l-4.2-14.7
					c0,0-0.2-0.7,0-1c0.1-0.2,5.6-5.8,9.7-10.7c2.6-3,4.5-6.1,4.5-6.1l3.8-4.8l1.9-1.3l1.9-1.1h1.9l2.9,0.8c0,0,4.4,1.3,7.3,2.1
					C53.3,128.6,61.4,129.2,64.7,129.1z"/>
				<path fill="#13120D" stroke="#FFFFFF" stroke-width="3" stroke-miterlimit="10" d="M47.1,236c-0.1,0-0.3-0.1-0.3-0.1
					c0,0-3.4-2-5-2.9c-1.6-0.9-7.1-4.1-7.1-4.1c0,0-1.8-1-2.9-1.2c-0.1,0-0.3,0-0.5,0c-1.5,0-4.9,0.6-5,0.6c0,0-1.5,0.5-2.6,0.5
					c-0.7,0-1-0.2-1.1-0.6c-0.2-1.2-0.3-1.4-0.3-1.4l0,0v-50.4l-0.6-7.7l-1.3-4.3l-4.2-14.7c0,0-0.2-0.7,0-1c0,0,0.1-0.2,0.4-0.4
					c3.9-4.1,7-7.5,9.3-10.3c2.5-3,4.4-6.1,4.5-6.1l3.8-4.8l1.9-1.3l1.9-1.1l1.9,0l2.9,0.8c0,0,4.4,1.3,7.3,2.1
					c2.8,0.7,10.1,1.3,13.8,1.3c0.2,0,0.4,0,0.5,0c8.2-0.3,21.8-3,22.4-3.1c0.1,0,0.2,0,0.3-0.1c0.3-0.1,0.7-0.2,1.1-0.2
					c0.3,0,0.6,0.1,0.7,0.2l1,1l18.2,18.5c0.1,0.1,2.4,1.8,2.4,2.7v14.4l13.2,63.8c0,0,0.1,0.7,0,1.5c-0.1,0.8-1.2,1.2-1.2,1.2
					l-1.9,1.2c0,0-0.5,0.3-1,0.3c-0.4,0-0.8-0.2-0.9-0.6c-0.3-0.8-0.4-1-0.5-1.1l0,0l-1.7-1.4c-0.1,0-6.4-3.8-9.1-4.8
					c-0.9-0.3-1.8-0.5-2.7-0.5c-1.2,0-2.3,0.4-2.8,1c-0.7,0.9-4.2,5.1-4.3,5.3c0,0.1-0.6,1.3-1.2,1.3c-0.3,0-0.6-0.3-0.9-0.8
					c-2-4.1-10.8-21.8-10.8-22l-11-22.3l-3.4-6l0,0c0,0-0.5-0.5-1-0.5c-0.3,0-0.5,0.2-0.7,0.5c-0.1,0.3-6.3,17-11.8,31.8
					c-5,13.7-9.4,25.4-9.5,25.6C47.4,236,47.3,236,47.1,236z M31.4,227.7c0.2,0,0.4,0,0.5,0c1,0.2,2.9,1.2,2.9,1.2
					c0,0,5.5,3.2,7.1,4.1c1.6,0.9,5,2.9,5,2.9s0.1,0.1,0.2,0.1c0.1,0,0.2-0.1,0.3-0.2c0.1-0.2,4.6-12.5,9.5-25.6
					c5.7-15.5,11.6-31.5,11.8-31.8c0.2-0.3,0.4-0.5,0.7-0.5c0.5,0,1,0.5,1,0.5l3.4,6l11,22.3c0.1,0.2,8.9,17.9,10.8,22
					c0.3,0.5,0.5,0.8,0.8,0.8c0.6,0,1.2-1.2,1.2-1.2l0,0c0,0,3.6-4.4,4.3-5.3c0.5-0.6,1.6-1,2.8-1c0.9,0,1.8,0.2,2.7,0.5
					c2.7,0.9,9,4.8,9.1,4.8l1.7,1.5l0,0c0,0.1,0.1,0.3,0.5,1.1c0.2,0.4,0.5,0.6,0.9,0.6c0.5,0,1-0.3,1-0.3l1.9-1.2
					c0,0,1.1-0.4,1.2-1.2c0.1-0.8,0-1.4,0-1.4l-13.2-63.8v-3v-11.4c0-0.9-2.4-2.6-2.4-2.7L90,127l-1-1c-0.1-0.1-0.4-0.2-0.7-0.2
					c-0.3,0-0.7,0.1-1.1,0.2c-0.1,0-0.2,0-0.3,0.1c-0.6,0.1-14.2,2.8-22.4,3.1c-0.2,0-0.3,0-0.5,0c-3.6,0-11-0.5-13.8-1.3
					c-2.9-0.8-7.3-2.1-7.3-2.1l-2.9-0.8h-1.9l-1.9,1.1l-1.9,1.3l-3.8,4.8c0,0-1.9,3.1-4.5,6.1c-2.3,2.8-5.5,6.2-9.3,10.3
					c-0.2,0.2-0.3,0.4-0.4,0.4c-0.2,0.2,0,0.9,0,0.9l4.2,14.7l1.3,4.3l0.6,7.7v50.4c0,0,0.1,0.3,0.3,1.4c0.1,0.4,0.4,0.5,1,0.5
					c1.1,0,2.6-0.5,2.6-0.5C26.5,228.3,29.9,227.7,31.4,227.7z"/>
			</g>
			<g>
				<path fill="#33387D" stroke="#FFFFFF" stroke-width="3" stroke-miterlimit="10" d="M64.7,129.1c8.2-0.3,21.8-3,22.4-3.1
					c0.6-0.1,1.6-0.4,2,0c0.4,0.4,1,1,1,1l18.2,18.5c0,0,2.4,1.8,2.4,2.7c0,0.9,0,2.9,0,2.9v8.5v1.7v1.3l13.2,63.8
					c0,0,0.1,0.7,0,1.4c-0.1,0.8-1.2,1.2-1.2,1.2l-1.9,1.2c0,0-1.4,0.8-1.9-0.3c-0.5-1.1-0.5-1.1-0.5-1.1l-1.7-1.4
					c0,0-6.4-3.8-9.1-4.8c-2.7-1-4.8-0.4-5.5,0.5c-0.7,0.9-4.3,5.3-4.3,5.3s-1.1,2.5-2.1,0.4c-2-4.1-10.8-22-10.8-22l-11-22.3
					l-3.4-6c0,0-1.1-1.2-1.7,0c-0.3,0.5-21,57-21.2,57.4c-0.2,0.3-0.6,0.1-0.6,0.1s-3.4-2-5-2.9c-1.6-0.9-7.1-4.1-7.1-4.1
					s-1.8-1-2.9-1.2c-1-0.2-5.5,0.6-5.5,0.6s-3.5,1.2-3.7,0c-0.2-1.3-0.3-1.4-0.3-1.4v-50.4l-0.6-7.7l-1.3-4.3l-4.2-14.7
					c0,0-0.2-0.7,0-1c0.1-0.2,5.6-5.8,9.7-10.7c2.6-3,4.5-6.1,4.5-6.1l3.8-4.8l1.9-1.3l1.9-1.1h1.9l2.9,0.8c0,0,4.4,1.3,7.3,2.1
					C53.3,128.6,61.4,129.2,64.7,129.1z"/>
				<path fill="#13120D" stroke="#FFFFFF" stroke-width="3" stroke-miterlimit="10" d="M47.1,236.1c-0.2,0-0.3-0.1-0.3-0.1l0,0
					c0,0-3.4-1.9-5-2.9c-1.6-0.9-7.1-4.1-7.1-4.1c0,0-1.8-0.9-2.8-1.2c-0.1,0-0.3,0-0.5,0c-1.5,0-4.7,0.6-4.9,0.6
					c-0.1,0-1.6,0.5-2.6,0.5c-0.7,0-1.1-0.2-1.2-0.7c-0.2-1.2-0.3-1.4-0.3-1.4l0,0l0,0v-50.4l-0.6-7.6l-1.3-4.3l-4.2-14.7
					c0-0.1-0.2-0.8,0-1.1c0,0,0.1-0.1,0.4-0.4c3.9-4.1,7-7.5,9.3-10.3c2.5-3,4.4-6.1,4.5-6.1l0,0l3.8-4.8l1.9-1.3l1.9-1.1h2l3,0.8
					c0,0,4.4,1.3,7.3,2.1c2.7,0.7,10.1,1.3,13.7,1.3c0.2,0,0.4,0,0.5,0c8.1-0.3,21.8-3,22.4-3.1c0.1,0,0.2,0,0.3-0.1
					c0.4-0.1,0.8-0.2,1.1-0.2c0.4,0,0.6,0.1,0.8,0.3l1,1l18.2,18.5c0.3,0.2,2.5,1.8,2.5,2.8v14.4l13.2,63.8c0,0,0.1,0.7,0,1.5
					c-0.1,0.8-1.1,1.2-1.3,1.3l-1.9,1.2c0,0-0.5,0.3-1.1,0.3c-0.5,0-0.8-0.2-1-0.7c-0.2-0.6-0.4-0.8-0.4-1c0,0,0-0.1,0-0.1l-1.6-1.4
					c-0.3-0.2-6.5-3.8-9.1-4.8c-0.9-0.3-1.8-0.5-2.7-0.5c-1.2,0-2.2,0.4-2.7,0.9c-0.7,0.8-4.1,5-4.3,5.3c-0.1,0.2-0.6,1.3-1.3,1.3
					c-0.4,0-0.7-0.3-1-0.9c-2-4.1-10.8-21.8-10.8-22l-11-22.3l-3.4-5.9c-0.1-0.1-0.5-0.5-0.9-0.5c-0.2,0-0.4,0.1-0.6,0.4
					c-0.2,0.4-6.3,17-11.8,31.7c-5.8,15.8-9.4,25.5-9.5,25.6C47.4,236.1,47.2,236.1,47.1,236.1z M31.4,227.6c0.2,0,0.4,0,0.6,0
					c1.1,0.2,2.8,1.2,2.9,1.2c0,0,5.5,3.2,7.1,4.1c1.6,0.9,5,2.9,5,2.9c0,0,0.1,0.1,0.2,0.1c0.1,0,0.2,0,0.2-0.1
					c0.1-0.3,4.7-12.6,9.5-25.6c7-19,11.6-31.5,11.8-31.8c0.2-0.4,0.5-0.6,0.8-0.6c0.6,0,1.1,0.6,1.1,0.6l0,0l3.4,6l11,22.3
					c0.1,0.2,8.9,17.9,10.8,22c0.2,0.5,0.5,0.7,0.8,0.7c0.5,0,0.9-0.8,1.1-1.2l0,0l0,0c0,0,3.6-4.4,4.3-5.3c0.5-0.6,1.6-1,2.9-1
					c0.9,0,1.8,0.2,2.7,0.5c2.7,1,9.1,4.8,9.1,4.8l0,0l1.8,1.5l0,0c0,0.1,0.2,0.4,0.4,1c0.1,0.3,0.4,0.5,0.8,0.5
					c0.5,0,0.9-0.3,1-0.3l1.9-1.2c0,0,1-0.4,1.1-1.1c0.1-0.7,0-1.4,0-1.4l-13.2-63.8v-14.4c0-0.7-1.7-2.1-2.4-2.6l0,0l-18.2-18.5
					l-1-1c-0.1-0.1-0.3-0.2-0.6-0.2c-0.3,0-0.7,0.1-1.1,0.2c-0.1,0-0.2,0-0.3,0.1c-0.6,0.1-14.2,2.8-22.4,3.1c-0.2,0-0.4,0-0.5,0
					c-3.6,0-11-0.5-13.8-1.3c-2.9-0.8-7.3-2.1-7.3-2.1l-2.9-0.8h-1.9l-1.8,1.1l-1.9,1.3l-3.8,4.8c-0.1,0.2-2,3.2-4.5,6.2
					c-2.3,2.8-5.5,6.2-9.3,10.3c-0.2,0.2-0.3,0.4-0.4,0.4c-0.1,0.1-0.1,0.6,0,0.8l4.2,14.7l1.3,4.3v0l0.6,7.7v50.4
					c0,0.1,0.1,0.4,0.3,1.4c0.1,0.3,0.4,0.5,0.9,0.5c1.1,0,2.5-0.5,2.6-0.5l0,0C26.6,228.2,29.9,227.6,31.4,227.6z"/>
			</g>
			<g>
				<path fill="#E41F1B" stroke="#FFFFFF" stroke-width="3" stroke-miterlimit="10" d="M27,57c-3.4,2.4-5,3.4-7.2,6.6
					c-8,11.9-12.4,22.9-14.6,32.9c-6.4,29.9,8.9,50,10.9,52.4c0.6,0.7,2.1-1.6,5.4-5.3c2.3-2.6,4.6-5.3,6.8-8.1
					c3.4-4.2,6.2-8.4,6.2-8.4l-2.1-3.4c0,0-1.1-1-2.2-4.6c-1-3.7-3-18.6-2.6-17.6c0.7,2.1,3.3,15.1,4.1,16.7
					c0.8,1.6,1.7,2.6,2.4,3.3c0.8,0.7,2.5,1.6,3.5,2.5c4.5,3.5,20.9,5.3,24.1,5.2c4.3-0.1,18.8-1.1,21.5-3c2.7-1.9,5.1-4.4,6.4-7.2
					c1.2-2.8,4.1-15.9,4.7-16.6c0.6-0.7-3.8,19.2-4.5,20.7c-0.5,1-2.6,2.8-2.6,2.8l23.3,21.9c0,0,10.4-25.2,9.1-48.9
					C118.3,75.3,99,58.5,97.8,57.1c-1.2-1.4-2.4-1.3-2.4-1.3s-0.5-0.2-1.3,2.1c-0.6,2.5-2.3,5.3-3.8,7.2c-0.7,0.9-2.5,2.3-4.2,3.7
					c-3.3,2.7-12.7,4.5-17.6,6c-5,1.5-9.9,1.5-15.9-1c-5.2-2.2-9.3-3.9-13-8.1c-3.7-4.2-5.6-5.8-5.6-5.8C33,57.9,29.4,55.3,27,57z"
					/>
				<path fill="#13120D" stroke="#FFFFFF" stroke-width="3" stroke-miterlimit="10" d="M16.4,149.1c-0.1,0-0.3-0.1-0.3-0.2
					c-1.2-1.5-5.4-7-8.6-15.9c-1.9-5.2-3.1-10.6-3.6-16.1c-0.6-6.7-0.2-13.6,1.3-20.5c2.4-11,7.3-22.1,14.6-33c2-3,3.6-4.1,6.5-6.1
					c0.2-0.2,0.5-0.3,0.7-0.5c0.5-0.4,1.1-0.6,1.8-0.6c2.2,0,4.6,2,5.5,3.4c0.2,0.2,2.1,1.8,5.6,5.8c3.8,4.3,8,6,12.9,8.1
					c3.2,1.4,6.2,2,9.2,2c2.1,0,4.3-0.3,6.6-1c1.3-0.4,2.9-0.8,4.5-1.2c4.7-1.2,10.6-2.7,13.1-4.7l0.2-0.2c1.6-1.3,3.3-2.6,3.9-3.5
					c0.9-1.2,3.1-4.3,3.8-7.1l0,0c0.7-1.9,1.2-2.2,1.4-2.2c0,0,0,0,0,0c0,0,0,0,0,0c0.3,0,1.4,0.1,2.4,1.3c0.1,0.1,0.3,0.3,0.7,0.7
					c1.9,1.8,6.8,6.7,11.5,13.8c5.9,9,9.2,18.2,9.7,27.4c0.7,12.2-1.8,24.9-4,33.3c-2.4,9.2-5,15.5-5.1,15.6l-0.1,0.2l-23.5-22.1
					l0.1-0.1c0,0,2-1.8,2.5-2.8c0.3-0.6,1.4-5,2.6-10.5c1-4.6,1.8-8.3,1.9-9.6c-0.4,1.1-1.1,3.9-1.8,6.7c-1,3.7-2,8-2.7,9.4
					c-1.4,3.2-4.2,5.7-6.4,7.3c-2.7,1.9-16.9,2.9-21.6,3c-0.1,0-0.2,0-0.2,0c-3.4,0-19.4-1.7-24-5.2l0,0c-0.6-0.5-1.4-1-2.1-1.5
					c-0.6-0.4-1.1-0.7-1.4-1c-0.9-0.8-1.7-1.9-2.5-3.3c-0.5-0.9-1.6-5.8-2.5-10.1c-0.5-2.3-1-4.4-1.3-5.7c0.3,3.2,1.7,13.4,2.5,16.6
					c1,3.6,2.1,4.6,2.1,4.6l0,0l0,0l2.1,3.5l0,0.1c0,0-2.9,4.2-6.2,8.4c-2.5,3.1-5.1,6.1-6.8,8.1c-0.8,0.9-1.5,1.7-2.1,2.4
					C17.9,148,17,149.1,16.4,149.1z M28.7,56.6c-0.6,0-1.2,0.2-1.7,0.5c-0.2,0.2-0.5,0.3-0.7,0.5c-2.9,2-4.5,3.1-6.5,6.1
					C12.6,74.5,7.7,85.5,5.4,96.5c-1.5,6.9-1.9,13.7-1.3,20.4c0.5,5.5,1.7,10.8,3.6,16c3.2,8.8,7.4,14.3,8.6,15.8
					c0,0.1,0.1,0.1,0.1,0.1c0.5,0,1.5-1.2,2.9-2.9c0.6-0.7,1.3-1.5,2.1-2.4c1.7-2,4.4-5,6.8-8.1c3.1-3.9,5.8-7.7,6.2-8.3l-2-3.3
					c-0.1-0.1-1.2-1.2-2.2-4.7c-0.4-1.5-1.1-5.3-1.7-10c-0.3-1.9-0.5-3.8-0.7-5.2c-0.3-2.3-0.2-2.4-0.2-2.5l0-0.1l0.1,0
					c0.1,0,0.1,0.1,0.2,0.1c0.3,0.9,0.9,3.5,1.6,6.6c1,4.3,2,9.2,2.5,10.1c0.7,1.4,1.5,2.5,2.4,3.2c0.3,0.3,0.9,0.6,1.4,1
					c0.7,0.5,1.5,1,2.1,1.5c2.4,1.8,7.9,3.1,12.2,3.9c5.1,0.9,9.9,1.3,11.6,1.3c0.1,0,0.2,0,0.2,0c4.6-0.1,18.8-1.1,21.4-3
					c2.1-1.5,5-4,6.3-7.2c0.6-1.4,1.7-5.6,2.6-9.4c1.1-4.3,1.8-6.9,2.1-7.3c0,0,0.1-0.1,0.1-0.1c0.1,0,0.1,0,0.1,0.1
					c0,0.1,0.1,0.2-0.5,3.3c-0.3,1.8-0.8,4.2-1.4,6.8c-1,4.6-2.3,10-2.7,10.7c-0.5,0.9-2.1,2.4-2.5,2.8l23,21.7
					c0.4-1.1,2.8-7.1,5-15.4c2.2-8.4,4.7-21.1,4-33.2c-0.5-9.1-3.8-18.3-9.7-27.3c-4.7-7.1-9.6-12-11.5-13.8
					c-0.3-0.3-0.6-0.6-0.7-0.7c-1-1.2-2.1-1.2-2.2-1.2c0,0,0,0,0,0l0,0l0,0c0,0-0.5,0.1-1.1,2c-0.7,2.9-2.9,6-3.9,7.2
					c-0.7,0.9-2.3,2.2-3.9,3.5l-0.2,0.2c-2.5,2-8.4,3.5-13.2,4.8c-1.7,0.4-3.2,0.8-4.5,1.2c-2.3,0.7-4.5,1-6.7,1c-3,0-6-0.7-9.3-2
					c-4.9-2.1-9.2-3.9-13-8.2C36,61.5,34,59.9,34,59.9l0,0l0,0C33.2,58.5,30.9,56.6,28.7,56.6z"/>
			</g>
			<g>
				<path fill="#ECC5A2" stroke="#FFFFFF" stroke-width="3" stroke-miterlimit="10" d="M45.2,70.4C38.9,66.8,32,57.5,32,57.5
					s-2.9-7.3-2-13c0,0,0.6-5,1.6-7.6c1-2.6,3-6,3-8.1c0-2.1,0-1.7-0.6-3.2c-0.6-1.5-4.5-5.9-6.5-7.3c-2.1-1.4-1.9-2.9-1.9-2.9
					s-0.5-1.5,1.1-3.2c1.6-1.7,0.5-0.8,4.6-4.5C35.5,4,39.2,6,39.2,6s2.2,1.3,4.1,2.6c1.9,1.3,2.6,2,4.5,2.6
					c1.9,0.6,5.3,0.1,5.3,0.1s5.7-1,9.9-1.4c4.1-0.3,6.5-0.1,9.1,0.4c2.6,0.5,7.7,3.5,10.5,3.5c2.9,0,6.8-1.1,8.3-1.4
					c1.5-0.3,4.2-0.3,6.7,0.8c2.6,1.1,3.3,2.7,3.3,2.7s1.5,2.7,1.5,4.8c0,2.1-0.4,4.2-0.8,5.6c-0.4,1.4-2,3.2-3.8,3.5
					c-1.9,0.3-2.2,2.4-2.2,2.4c-1.8,6.6-0.1,17.1-0.2,19.4c-0.1,2.4,0,3.2-0.4,5.1c-0.4,1.9-2.8,6.1-2.8,6.1s-1.5,2.1-5,5.4
					c-5.2,4.9-22.3,7.6-25.2,7.6C59,75.8,54.1,75.1,45.2,70.4z"/>
				<path fill="#13120D" stroke="#FFFFFF" stroke-width="3" stroke-miterlimit="10" d="M61.9,75.9L61.9,75.9c-1.9,0-4-0.3-6.2-1
					c-3.1-0.9-6.6-2.4-10.6-4.5C38.9,66.9,32,57.6,31.9,57.5l0,0c0-0.1-2.9-7.4-2-13.1c0,0,0.6-5.1,1.6-7.6c0.3-0.8,0.7-1.8,1.2-2.7
					c0.9-1.9,1.8-3.9,1.8-5.3c0-1.7,0-1.7-0.4-2.5c-0.1-0.2-0.2-0.4-0.3-0.6c-0.6-1.4-4.4-5.8-6.5-7.3c-2-1.4-2-2.8-2-3
					c-0.1-0.2-0.4-1.7,1.2-3.3c0.4-0.4,0.6-0.7,0.8-0.9c0.5-0.6,0.7-0.8,3.8-3.6c1.2-1,3.1-2.3,5.5-2.3c1.5,0,2.5,0.5,2.5,0.5l0,0
					c0,0,2.2,1.4,4.1,2.6c0.4,0.3,0.7,0.5,1,0.7c1.2,0.9,1.9,1.4,3.4,1.8c0.6,0.2,1.4,0.3,2.4,0.3c1.5,0,2.8-0.2,2.8-0.2
					c0.1,0,5.8-1,9.9-1.4c1.3-0.1,2.4-0.1,3.5-0.1c2.4,0,4.2,0.3,5.7,0.5c1.1,0.2,2.6,0.8,4.2,1.5c2.2,0.9,4.7,2,6.3,2
					c2.3,0,5.4-0.7,7.2-1.2c0.4-0.1,0.8-0.2,1.1-0.3c0.6-0.1,1.3-0.2,2-0.2c1.2,0,2.9,0.2,4.8,1c2.6,1.1,3.3,2.7,3.4,2.8
					c0.1,0.1,1.5,2.7,1.5,4.8c0,2.6-0.6,5-0.8,5.6c-0.4,1.3-1.9,3.3-3.9,3.6c-1.8,0.3-2.1,2.3-2.1,2.3l0,0c-1.3,4.8-0.7,11.8-0.4,16
					c0.1,1.5,0.2,2.8,0.2,3.4c0,0.6,0,1.1-0.1,1.6c0,1.3-0.1,2.1-0.4,3.6c-0.4,1.9-2.7,6-2.8,6.2l0,0c0,0-1.6,2.2-5,5.4
					c-2.8,2.7-8.9,4.6-13.5,5.7C68.6,75.2,63.5,75.9,61.9,75.9z M32.2,57.4c0.3,0.4,7,9.4,13.2,12.8c9.1,4.8,13.8,5.4,16.6,5.4h0
					c1.5,0,6.6-0.7,11.7-1.9c4.6-1.1,10.6-3,13.4-5.6c3.3-3.2,4.9-5.3,5-5.4c0.1-0.2,2.4-4.2,2.8-6.1c0.3-1.4,0.3-2.2,0.3-3.5
					c0-0.5,0-1,0.1-1.6c0-0.6-0.1-1.8-0.2-3.4c-0.3-4.2-0.9-11.3,0.4-16.1c0-0.1,0.4-2.2,2.3-2.5c1.9-0.3,3.4-2.2,3.7-3.4
					c0.2-0.7,0.8-3,0.8-5.5c0-2-1.5-4.7-1.5-4.7c0,0-0.8-1.6-3.2-2.7c-1.8-0.8-3.6-1-4.7-1c-0.7,0-1.4,0.1-1.9,0.2
					c-0.3,0.1-0.7,0.2-1.1,0.3c-1.8,0.4-4.9,1.2-7.2,1.2c-1.7,0-4.1-1-6.4-2c-1.6-0.7-3.1-1.3-4.1-1.5c-1.5-0.3-3.2-0.5-5.6-0.5
					c-1,0-2.2,0-3.4,0.1c-4.1,0.3-9.8,1.3-9.9,1.4c0,0-1.4,0.2-2.9,0.2c-1,0-1.9-0.1-2.5-0.3c-1.5-0.4-2.3-1-3.5-1.8
					c-0.3-0.2-0.7-0.5-1-0.7c-1.8-1.3-3.9-2.6-4.1-2.6c-0.1,0-1-0.5-2.4-0.5c-1.8,0-3.6,0.7-5.3,2.2c-3.1,2.7-3.3,2.9-3.8,3.5
					c-0.2,0.2-0.4,0.5-0.8,0.9c-1.5,1.6-1.1,3.1-1.1,3.1l0,0l0,0c0,0-0.1,1.4,1.9,2.8c2.2,1.5,6,5.9,6.6,7.4
					c0.1,0.3,0.2,0.5,0.3,0.6c0.3,0.8,0.4,0.9,0.4,2.6c0,1.4-0.9,3.4-1.9,5.4c-0.4,1-0.9,1.9-1.2,2.7c-0.9,2.5-1.6,7.5-1.6,7.6
					C29.3,50,32,57,32.2,57.4z"/>
			</g>
			<g>
				<path fill="#FFFFFF" stroke="#FFFFFF" stroke-width="3" stroke-miterlimit="10" d="M54,40.6c-0.3,5.2-2.8,9.2-6.2,9
					c-3.4-0.2-4.9-4.6-4.6-9.8c0.3-5.2,2.7-7.9,6.1-7.7C52.8,32.3,54.4,35.3,54,40.6z"/>
				<path fill="#13120D" stroke="#FFFFFF" stroke-width="3" stroke-miterlimit="10" d="M48.1,49.7c-0.1,0-0.2,0-0.3,0
					c-1.7-0.1-3-1.2-3.8-3.1c-0.8-1.7-1.1-4.2-0.9-6.8c0.1-2.5,0.8-4.4,1.8-5.8c1.1-1.4,2.6-2.1,4.4-2c1.7,0.1,3,0.9,3.8,2.4
					c0.8,1.5,1.1,3.5,1,6.2C53.9,46,51.4,49.7,48.1,49.7z M49,32.3c-3.3,0-5.3,2.8-5.6,7.6c-0.2,2.6,0.2,5,0.9,6.7
					c0.8,1.8,2,2.8,3.6,2.9c1.6,0.1,3.1-0.8,4.2-2.5c1-1.6,1.7-3.9,1.8-6.4c0.3-5.2-1.3-8.1-4.5-8.3C49.2,32.3,49.1,32.3,49,32.3z"
					/>
			</g>
			<g>
				<path fill="#13120D" stroke="#FFFFFF" stroke-width="3" stroke-miterlimit="10" d="M50.6,46.6c0-1.7-1.1-3-2.5-3
					c-1.4,0-2.5,1.4-2.5,3c0,1.7,1.1,3,2.5,3C49.5,49.6,50.6,48.2,50.6,46.6z"/>
				<path fill="#13120D" stroke="#FFFFFF" stroke-width="3" stroke-miterlimit="10" d="M48.1,49.6c-1.4,0-2.5-1.4-2.5-3.1
					c0-1.7,1.1-3.1,2.5-3.1s2.5,1.4,2.5,3.1C50.7,48.3,49.5,49.6,48.1,49.6z M48.1,43.5c-1.4,0-2.5,1.4-2.5,3c0,1.7,1.1,3,2.5,3
					c1.4,0,2.5-1.4,2.5-3C50.6,44.9,49.5,43.5,48.1,43.5z"/>
			</g>
			<g>
				<path fill="#FFFFFF" stroke="#FFFFFF" stroke-width="3" stroke-miterlimit="10" d="M82.4,43.9c-0.8,5.2-4.4,8.8-7.8,8.3
					c-3.4-0.5-4-5.6-3.1-10.8c0.8-5.2,3.5-7.6,6.8-7C81.7,34.9,83.2,38.7,82.4,43.9z"/>
				<path fill="#13120D" stroke="#FFFFFF" stroke-width="3" stroke-miterlimit="10" d="M75.3,52.4c-0.2,0-0.5,0-0.7-0.1
					c-1.6-0.3-2.7-1.6-3.2-3.8c-0.4-1.9-0.4-4.4,0-7.2c0.7-4.6,2.9-7.2,6.1-7.2c0.3,0,0.6,0,0.9,0.1c3.4,0.5,5,4.3,4.2,9.7
					c-0.4,2.3-1.3,4.5-2.7,6.1C78.5,51.5,76.8,52.4,75.3,52.4z M77.4,34.4c-3,0-5.1,2.5-5.8,7c-0.4,2.7-0.4,5.2,0,7.1
					c0.5,2.1,1.5,3.3,3,3.6c0.2,0,0.4,0.1,0.6,0.1c3.2,0,6.2-3.6,7-8.2c0.8-5.2-0.7-8.9-3.9-9.4C78,34.4,77.7,34.4,77.4,34.4z"/>
			</g>
			<g>
				<path fill="#13120D" stroke="#FFFFFF" stroke-width="3" stroke-miterlimit="10" d="M77.9,49.5c0.2-1.7-0.8-3.1-2.2-3.3
					c-1.4-0.1-2.6,1.1-2.8,2.8c-0.2,1.7,0.8,3.1,2.2,3.3C76.5,52.4,77.7,51.2,77.9,49.5z"/>
				<path fill="#13120D" stroke="#FFFFFF" stroke-width="3" stroke-miterlimit="10" d="M75.3,52.4L75.3,52.4c-0.1,0-0.1,0-0.2,0
					c-1.4-0.1-2.4-1.6-2.2-3.3c0.2-1.6,1.3-2.8,2.6-2.8c0.1,0,0.1,0,0.2,0c1.4,0.1,2.4,1.6,2.2,3.3C77.8,51.1,76.6,52.4,75.3,52.4z
					 M75.5,46.3c-1.3,0-2.4,1.2-2.5,2.8c-0.2,1.7,0.8,3.1,2.1,3.2c0.1,0,0.1,0,0.2,0c1.3,0,2.4-1.2,2.5-2.8c0.2-1.7-0.8-3.1-2.1-3.2
					C75.7,46.3,75.6,46.3,75.5,46.3z"/>
			</g>
			<g>
				<path fill="#F5DFD0" stroke="#FFFFFF" stroke-width="3" stroke-miterlimit="10" d="M56.5,56.4c2.7-4.2,7.6-4.5,9.8,0.6
					c0,0,1.1,2.4,0.1,3.2c-1,0.8-10.5,0.1-11.3,0C54.4,60.2,56.5,56.4,56.5,56.4z"/>
				<path fill="#13120D" stroke="#FFFFFF" stroke-width="3" stroke-miterlimit="10" d="M62.8,60.8c-3.1,0-7.2-0.3-7.7-0.4
					c-0.1,0-0.2-0.1-0.2-0.2c-0.3-0.6,1.2-3.3,1.5-3.9l0,0c1.3-2.1,3.2-3.2,5.1-3.2c2.1,0,3.9,1.4,4.9,3.9c0,0.1,1.1,2.5,0.1,3.4
					C66.3,60.5,66,60.8,62.8,60.8z M56.6,56.5c-0.7,1.3-1.6,3.3-1.5,3.6c0,0,0,0,0,0c0.4,0.1,4.5,0.4,7.7,0.4c2.6,0,3.3-0.2,3.5-0.4
					c0.4-0.4,0.4-1.2,0.3-1.8c-0.1-0.7-0.4-1.3-0.4-1.3c-1-2.4-2.7-3.7-4.7-3.7C59.6,53.4,57.9,54.5,56.6,56.5z"/>
			</g>
			<g>
				<path fill="#13120D" stroke="#FFFFFF" stroke-width="3" stroke-miterlimit="10" d="M61.4,61.4c-1.1,0-0.9,1.8-1.5,3.2
					c-0.4,1-1.5,1.6-1.5,1.6s-0.9,0.3-2.2,0.4c-0.9,0.1-1.5,0-2.2-0.7c-0.7-0.7-3.8-3.4-3.8-3.4s-1.5-2.1-2.7-0.7
					c-1.2,1.4,1.4,1.5,2.2,1.7c0.8,0.2,3.8,3.8,4,4.4c0.2,0.6,2.4,0.6,3.1,0.5c0.6,0,1.3,0.1,1.6,0.4c0.2,0.3,0.3,0.3,0.6,0.7
					c0.3,0.4,0.2,0.9-0.2,1.6c-0.2,0.8-0.1,1.7,0.4,2.5c0.5,0.8,1.4,1,1.4,1s0.6,0.3,2,0c1.4-0.3,1.8-1.6,1.8-1.6s0.6-1.6,0-2.3
					c-0.6-0.7-0.3-1,0-1.5c0.3-0.6,1.2-0.5,1.2-0.5l1.4,0.2l3.1-0.2l4.1-1.5c0,0,2.9-1.3,2.9-1.8c0-0.6-0.7-0.8-1.2-0.6
					c-0.6,0.2-1.5,0.6-1.5,0.6s-1.8,0.7-2.4,1.1c-0.6,0.4-0.8,0.8-1.9,1.2c-1.1,0.4-2.3,0.6-3,0.4c-1.1-0.2-2.4-0.9-3.7-3.2
					C62,63.4,62.5,61.5,61.4,61.4z"/>
				<path fill="#13120D" stroke="#FFFFFF" stroke-width="3" stroke-miterlimit="10" d="M61.3,74.8c-0.6,0-0.8-0.1-0.9-0.1
					c-0.1,0-0.9-0.2-1.4-1c-0.5-0.8-0.6-1.7-0.4-2.5l0,0c0.4-0.7,0.4-1.2,0.2-1.6c-0.2-0.3-0.3-0.4-0.4-0.5
					c-0.1-0.1-0.1-0.1-0.2-0.2c-0.2-0.2-0.7-0.4-1.3-0.4c-0.1,0-0.1,0-0.2,0c-0.1,0-0.3,0-0.5,0c-0.6,0-2.4,0-2.6-0.6
					c-0.2-0.6-3.1-4.2-3.9-4.4c-0.1,0-0.3-0.1-0.5-0.1c-0.8-0.1-1.8-0.3-2-0.8c-0.1-0.2,0-0.5,0.3-0.8c0.3-0.3,0.6-0.5,0.9-0.5
					c0.9,0,1.8,1.1,1.8,1.2c0,0,3.1,2.7,3.8,3.4c0.6,0.6,1.1,0.7,1.7,0.7c0.1,0,0.3,0,0.4,0c1.3-0.1,2.2-0.4,2.2-0.4
					c0,0,1-0.6,1.5-1.5c0.2-0.5,0.3-1,0.4-1.5c0.2-0.9,0.3-1.7,1.1-1.7c0.6,0,0.8,0.6,1,1.4c0.2,0.6,0.3,1.3,0.8,1.8
					c1.1,1.9,2.3,3,3.7,3.2c0.2,0.1,0.5,0.1,0.8,0.1c0.6,0,1.4-0.2,2.2-0.5c0.8-0.3,1.1-0.6,1.4-0.8c0.2-0.1,0.3-0.2,0.5-0.4
					c0.6-0.4,2.4-1.1,2.4-1.1c0,0,1-0.4,1.5-0.6c0.1,0,0.3-0.1,0.4-0.1c0.3,0,0.6,0.1,0.7,0.3c0.1,0.1,0.2,0.3,0.2,0.5
					c0,0.6-2.8,1.8-2.9,1.9l-4.1,1.5l-3.1,0.2l-1.4-0.2c0,0,0,0-0.1,0c-0.2,0-0.8,0-1,0.5c0,0.1-0.1,0.2-0.1,0.2
					c-0.2,0.4-0.4,0.7,0.2,1.3c0.3,0.3,0.3,0.8,0.2,1.5c-0.1,0.5-0.2,0.9-0.2,0.9c0,0-0.5,1.4-1.9,1.6
					C62.1,74.7,61.7,74.8,61.3,74.8z M58.7,71.2c-0.2,0.8-0.1,1.7,0.4,2.4c0.5,0.8,1.3,0.9,1.3,0.9c0,0,0.3,0.1,0.9,0.1
					c0.3,0,0.7,0,1.1-0.1c1.4-0.3,1.8-1.6,1.8-1.6c0,0,0.6-1.6,0-2.3c-0.5-0.6-0.4-0.9-0.2-1.3c0-0.1,0.1-0.1,0.1-0.2
					c0.2-0.5,0.8-0.5,1.1-0.5c0.1,0,0.1,0,0.1,0l1.4,0.2l3.1-0.2l4.1-1.5c0.8-0.4,2.8-1.4,2.9-1.8c0-0.2,0-0.3-0.1-0.4
					c-0.2-0.2-0.4-0.3-0.7-0.3c-0.1,0-0.3,0-0.4,0.1c-0.6,0.2-1.5,0.6-1.5,0.6c0,0-1.8,0.7-2.4,1.1c-0.2,0.1-0.3,0.2-0.5,0.4
					c-0.3,0.3-0.7,0.5-1.4,0.8C69,67.8,68.2,68,67.6,68c-0.3,0-0.6,0-0.8-0.1c-1.4-0.3-2.6-1.3-3.7-3.3c-0.5-0.6-0.6-1.3-0.8-1.9
					c-0.2-0.7-0.3-1.3-0.9-1.3c0,0,0,0,0,0c-0.7,0-0.8,0.7-1,1.6c-0.1,0.5-0.2,1-0.4,1.5c-0.4,1-1.5,1.6-1.5,1.6
					c0,0-0.9,0.3-2.2,0.4c-0.2,0-0.3,0-0.4,0c-0.6,0-1.2-0.1-1.8-0.7c-0.7-0.7-3.7-3.4-3.8-3.4c0,0-0.8-1.2-1.7-1.2
					c-0.3,0-0.6,0.2-0.9,0.4c-0.3,0.3-0.4,0.5-0.3,0.8c0.2,0.5,1.2,0.7,1.9,0.8c0.2,0,0.4,0.1,0.5,0.1c0.8,0.2,3.8,3.8,4,4.4
					c0.1,0.4,1.5,0.5,2.5,0.5c0.2,0,0.4,0,0.5,0c0.1,0,0.1,0,0.2,0c0.6,0,1.2,0.2,1.4,0.4c0.1,0.1,0.1,0.2,0.2,0.2
					c0.1,0.1,0.2,0.2,0.4,0.5C59.2,70,59.1,70.5,58.7,71.2z"/>
			</g>
			<g>
				<path fill="#FFFFFF" stroke="#FFFFFF" stroke-width="3" stroke-miterlimit="10" d="M63,67.9c0,0.5-0.8,0.9-1.8,0.9
					c-1,0-1.8-0.4-1.8-0.9c0-0.5,0.8-0.9,1.8-0.9C62.2,67,63,67.4,63,67.9z"/>
			</g>
		</g>
	</g>
	<g>
		<g>
			<g>
				<path fill="#ECC5A2" stroke="#000000" stroke-width="0.8" stroke-miterlimit="10" d="M43.6,233.2c-0.7-1.4-8.3-4.8-8.3-4.8
					s-1.5-0.8-2.6-1.1c-1.1-0.2-4.6,0.4-5.5,0.6c-0.9,0.2-1.5,0.4-1.5,0.4s-1.1,0.7-1.3,1.1c-0.2,0.4-0.1,1,0,1.7
					c0.1,0.7,0.9,1.7,0.9,1.7l1.5,2.2c0,0,1,1.6,0.2,1c-0.9-0.6-1.5-1.1-1.5-1.1s-2.7-2.1-3.4-2.3c-1.2-0.3-1.2-0.4-3.2-0.3
					c-2,0.1-5,1.1-6.9,2.7c-2,1.6-4.8,3.9-4.8,3.9s-1.7,1.9-1.8,3.4c-0.2,1.5-0.4,2.3,0,3.6c0.4,1.3,2.5,2.5,2.5,2.5s2.2,2.2,3.2,3
					c1,0.8,4.4,1.4,5.5,1.8c1.2,0.4,4.3,1.4,5.9,1.8c1.6,0.4,6-0.6,6-0.6s3.3-0.6,4.9-1.4c1.6-0.8,1.6-0.8,2.8-2.3
					c1.2-1.5,1.2-1.5,2.3-3.1c1.1-1.6,2.3-1.3,3.6-1.6c1.3-0.3,3.4-0.6,3.9-0.9c0.6-0.3,0.8-0.8,1.3-2.2c0.5-1.4,0-2.6,0-2.6
					s-0.8-1.3-1.8-3.4C44.3,234.6,44.3,234.6,43.6,233.2z"/>
				<path fill="#13110C" stroke="#000000" stroke-width="0.8" stroke-miterlimit="10" d="M23.3,255.2L23.3,255.2
					c-0.4,0-0.8,0-1.1-0.1c-1.4-0.4-4-1.2-5.4-1.7c-0.2-0.1-0.4-0.1-0.5-0.2c-0.3-0.1-0.9-0.2-1.5-0.4c-1.5-0.4-3.3-0.8-4.1-1.4
					c-1-0.8-3-2.8-3.2-3c-0.2-0.1-2.1-1.3-2.5-2.5c-0.3-1.1-0.2-1.8-0.1-2.8c0-0.2,0.1-0.5,0.1-0.8c0.2-1.5,1.8-3.3,1.9-3.4l0,0
					c0,0,2.8-2.3,4.8-3.9c2.1-1.7,5.1-2.7,7-2.7c0.5,0,0.9,0,1.1,0c0.8,0,1.1,0.1,1.8,0.3c0.1,0,0.2,0.1,0.3,0.1
					c0.7,0.2,3.4,2.3,3.5,2.3l0,0c0,0,0.7,0.5,1.5,1.1c0.1,0,0.1,0.1,0.1,0.1c-0.1-0.2-0.3-0.6-0.5-0.9l-1.5-2.2
					c-0.1-0.1-0.8-1-0.9-1.7c0-0.1,0-0.2,0-0.3c-0.1-0.6-0.1-1,0.1-1.4c0.2-0.4,1.2-1,1.3-1.1l0,0l0,0c0,0,0.7-0.2,1.5-0.4
					c0.8-0.2,3.4-0.7,4.9-0.7c0.3,0,0.5,0,0.7,0.1c1.1,0.2,2.5,1,2.6,1.1c0.4,0.2,7.6,3.4,8.4,4.8c0.7,1.4,0.7,1.4,1.7,3.6
					c0.9,2.1,1.7,3.4,1.7,3.4l0,0c0,0.1,0.5,1.3,0,2.7c-0.5,1.4-0.7,2-1.3,2.3c-0.4,0.2-1.4,0.4-2.5,0.6c-0.5,0.1-1,0.2-1.5,0.3
					c-0.3,0.1-0.6,0.1-0.9,0.1c-0.9,0.1-1.8,0.2-2.6,1.4c-1.1,1.6-1.1,1.6-2.3,3.1c-1.2,1.5-1.2,1.5-2.8,2.4
					c-1.6,0.8-4.8,1.4-4.9,1.4C28.2,254.5,25.2,255.2,23.3,255.2z M7.1,239c-0.1,0.1-1.6,1.9-1.8,3.3c0,0.3-0.1,0.5-0.1,0.8
					c-0.1,1-0.2,1.7,0.1,2.7c0.4,1.2,2.4,2.4,2.4,2.4l0,0l0,0c0,0,2.2,2.2,3.2,3c0.7,0.5,2.6,1,4,1.3c0.6,0.1,1.1,0.3,1.5,0.4
					c0.1,0,0.3,0.1,0.5,0.2c1.4,0.5,4,1.3,5.4,1.7c0.2,0.1,0.6,0.1,1,0.1c1.9,0,4.9-0.6,4.9-0.7c0,0,3.3-0.6,4.8-1.4
					c1.6-0.8,1.6-0.8,2.8-2.3c1.2-1.5,1.2-1.5,2.3-3.1c0.9-1.3,1.9-1.4,2.8-1.5c0.3,0,0.6-0.1,0.8-0.1c0.4-0.1,1-0.2,1.5-0.3
					c1-0.2,2.1-0.4,2.4-0.6c0.5-0.3,0.7-0.7,1.2-2.2c0.4-1.3,0-2.4,0-2.5c-0.1-0.1-0.9-1.4-1.8-3.4c-0.9-2.2-0.9-2.2-1.7-3.6
					c-0.7-1.4-8.2-4.7-8.2-4.7l0,0c0,0-1.5-0.8-2.6-1c-0.2,0-0.4-0.1-0.7-0.1c-1.4,0-4.1,0.5-4.8,0.7c-0.8,0.2-1.4,0.4-1.5,0.4
					c-0.3,0.2-1.1,0.7-1.2,1c-0.2,0.3-0.1,0.7,0,1.3c0,0.1,0,0.2,0,0.3c0.1,0.7,0.8,1.6,0.8,1.6l0,0l1.5,2.2
					c0.4,0.7,0.6,1.1,0.5,1.2c0,0.1-0.1,0.1-0.2,0.1l0,0c-0.1,0-0.2-0.1-0.4-0.2c-0.9-0.6-1.5-1.1-1.5-1.1c-0.9-0.7-2.8-2.1-3.4-2.3
					c-0.1,0-0.2-0.1-0.3-0.1c-0.6-0.2-0.9-0.3-1.7-0.3c-0.3,0-0.6,0-1.1,0c-1.8,0.1-4.9,1-6.9,2.7C10,236.6,7.2,238.9,7.1,239z"/>
			</g>
			<g>
				<path fill="#FFFFFF" stroke="#000000" stroke-width="0.8" stroke-miterlimit="10" d="M53.4,40c-0.3,5.2-2.8,9.2-6.2,9
					c-3.4-0.2-4.9-4.6-4.6-9.8c0.3-5.2,2.7-7.9,6.1-7.7C52.2,31.8,53.8,34.8,53.4,40z"/>
				<path fill="#FFFFFF" stroke="#000000" stroke-width="0.8" stroke-miterlimit="10" d="M47.5,49.6c-0.1,0-0.2,0-0.3,0
					c-1.8-0.1-3.2-1.3-4.1-3.3c-0.8-1.8-1.1-4.2-1-7c0.2-2.6,0.8-4.6,1.9-6c1.2-1.5,2.8-2.2,4.7-2.1c1.9,0.1,3.2,1,4.1,2.6
					c0.8,1.5,1.2,3.7,1,6.4C53.6,45.7,51,49.6,47.5,49.6z M48.4,32.1c-3.1,0-5,2.6-5.3,7.2c-0.2,2.6,0.2,4.9,0.9,6.6
					c0.9,2.1,2.3,2.7,3.3,2.7c0.1,0,0.1,0,0.2,0c1.8,0,3-1.3,3.7-2.4c1-1.6,1.6-3.8,1.8-6.2c0.2-2.5-0.1-4.5-0.9-5.8
					c-0.7-1.3-1.8-2-3.3-2.1C48.6,32.1,48.5,32.1,48.4,32.1z"/>
			</g>
			<g>
				<g>
					<path fill="#ECC5A2" stroke="#000000" stroke-width="0.8" stroke-miterlimit="10" d="M103.7,221.7c0,0-1-0.1-1.8,0.9
						c-0.8,1-2,2.4-2,2.4l-2.7,3.5c0,0-0.9,1.9-0.9,3.2c0,1.3,0,2.8,0,2.8s-0.5,1.5,0,2.3c0.5,0.7,0.5,0.6,1,1.6
						c0.5,1,5.3,1.6,6.5,2.2c1.2,0.6,3.6,1.4,4.3,2c0.7,0.6,1.7,1.3,3.7,3.2c2,1.9,4.1,2.7,5.7,3c1.6,0.3,5,1,5,1s2.5,0.6,5.1,0.6
						c2.6,0,5.5-1.6,5.5-1.6s4.9-3.2,5.3-7.8c0.4-4.5-0.5-5.4-1.3-7.2c-0.8-1.8-2.9-3-4.6-4.3c-1.7-1.3-5.6-1.7-7.2-1.3
						c-1.6,0.4-3.6,0.8-3.6,0.8s-1.8,1.3-2.5,1c-0.8-0.3-0.4-0.3-0.9-1.1c-0.5-0.8-1.1-1.3-1.1-1.3s-10.6-5.8-7.5-4.4
						c3.1,1.3-5.1-1.7-3.6-1.4C107.8,222.1,103.7,221.7,103.7,221.7z"/>
				</g>
				<g>
					<path fill="#13120D" stroke="#000000" stroke-width="0.8" stroke-miterlimit="10" d="M127.6,250.5c-2.6,0-5.2-0.6-5.2-0.6
						c0,0-3.4-0.7-5-1c-2.2-0.4-4.1-1.4-5.8-3c-1.8-1.7-2.7-2.4-3.4-3c-0.1-0.1-0.2-0.2-0.3-0.3c-0.5-0.4-1.7-0.9-2.9-1.4
						c-0.5-0.2-1-0.4-1.4-0.6c-0.4-0.2-1.4-0.4-2.4-0.7c-1.9-0.4-3.8-0.9-4.2-1.6c-0.3-0.7-0.4-0.8-0.6-1.1
						c-0.1-0.1-0.2-0.2-0.3-0.4c-0.5-0.7-0.1-2.2,0-2.4v-2.7c0-1.3,0.9-3.2,0.9-3.3l0,0l2.7-3.5l2-2.4c0.7-0.9,1.5-0.9,1.8-0.9
						c0.1,0,0.1,0,0.1,0c0,0,1.4,0.1,2.2,0.2c0,0,0,0,0,0c0,0,0-0.1,0.2-0.1c0,0,0.1,0,0.2,0c0.3,0.1,0.5,0.1,0.4,0.2c0,0,0,0,0,0.1
						c0.6,0.3,1.6,0.7,2.5,1c0,0,0.1-0.1,0.1-0.1c0.1,0,0.1,0,0.6,0.2c0.8,0.4,0.8,0.4,0.8,0.5l0,0.1l-0.1,0c0,0,0,0,0,0
						c2.2,1.3,6.8,3.8,6.9,3.8l0,0c0,0,0.6,0.5,1.1,1.3c0.2,0.3,0.2,0.5,0.3,0.7c0.1,0.2,0.1,0.3,0.5,0.4c0.1,0,0.1,0,0.2,0
						c0.8,0,2.2-1,2.2-1l0,0l3.6-0.8c0.4-0.1,0.9-0.1,1.5-0.1c2.7,0,4.8,0.7,5.8,1.5c0.3,0.3,0.7,0.5,1.1,0.8c1.4,1,2.8,2.1,3.5,3.6
						c0.1,0.2,0.2,0.5,0.3,0.7c0.7,1.4,1.3,2.6,1,6.6c-0.1,1.3-0.7,3.4-2.8,5.7c-1.3,1.4-2.5,2.2-2.5,2.2l0,0
						C133.2,248.9,130.3,250.5,127.6,250.5z M97.3,228.6c-0.1,0.2-0.9,2-0.9,3.2v2.8l0,0c0,0-0.5,1.5,0,2.2c0.1,0.2,0.2,0.3,0.3,0.4
						c0.2,0.3,0.3,0.4,0.7,1.1c0.3,0.5,2.4,1.1,4,1.4c1.1,0.2,2,0.5,2.4,0.7c0.4,0.2,0.9,0.4,1.4,0.6c1.1,0.5,2.4,1,2.9,1.4
						c0.1,0.1,0.2,0.2,0.3,0.2c0.7,0.6,1.6,1.3,3.4,3c1.7,1.6,3.6,2.6,5.7,3c1.6,0.3,5,1,5,1c0,0,2.5,0.6,5.1,0.6
						c2.5,0,5.3-1.5,5.4-1.5c0.1-0.1,1.3-0.9,2.5-2.2c1.1-1.2,2.5-3.2,2.7-5.5c0.3-3.9-0.3-5-1-6.4c-0.1-0.2-0.2-0.4-0.3-0.7
						c-0.7-1.4-2.1-2.4-3.4-3.5c-0.4-0.3-0.7-0.5-1.1-0.8c-1.2-1-3.8-1.4-5.6-1.4c-0.6,0-1.1,0-1.5,0.1l-3.5,0.8
						c-0.2,0.1-1.5,1.1-2.4,1.1c-0.1,0-0.2,0-0.3,0c-0.5-0.2-0.6-0.3-0.7-0.6c0-0.1-0.1-0.3-0.3-0.6c-0.4-0.8-1-1.2-1-1.2
						c-0.4-0.2-6.5-3.6-7.8-4.4l0,0c-1.1-0.4-2.6-1-3.2-1.3l0,0c-0.8,0-2.5-0.2-2.5-0.2c0,0,0,0-0.1,0c-0.3,0-1,0.1-1.6,0.9l-2,2.4
						L97.3,228.6z"/>
				</g>
			</g>
			<g>
				<ellipse fill="#13120D" stroke="#000000" stroke-width="0.8" stroke-miterlimit="10" cx="46.3" cy="38.7" rx="2.5" ry="3"/>
				<path fill="#FFFFFF" stroke="#000000" stroke-width="0.8" stroke-miterlimit="10" d="M46.3,42.2c-1.6,0-3-1.6-3-3.5
					c0-2,1.3-3.5,3-3.5c1.6,0,3,1.6,3,3.5C49.2,40.6,47.9,42.2,46.3,42.2z M46.3,36.1c-1.1,0-2,1.1-2,2.6c0,1.4,0.9,2.6,2,2.6
					c1.1,0,2-1.1,2-2.6C48.3,37.2,47.4,36.1,46.3,36.1z"/>
			</g>
			<g>
				<path fill="#FFFFFF" stroke="#000000" stroke-width="0.8" stroke-miterlimit="10" d="M81.8,43.3c-0.8,5.2-4.4,8.8-7.8,8.3
					c-3.4-0.5-4-5.6-3.1-10.8c0.8-5.2,3.5-7.6,6.8-7C81.1,34.3,82.6,38.2,81.8,43.3z"/>
				<path fill="#FFFFFF" stroke="#000000" stroke-width="0.8" stroke-miterlimit="10" d="M74.7,52.2c-0.2,0-0.5,0-0.7-0.1
					c-1.8-0.3-3-1.7-3.5-4c-0.6-2.5-0.3-5.3,0-7.3c0.8-4.8,3.1-7.5,6.4-7.5c0.3,0,0.7,0,1,0.1c1.8,0.3,3.2,1.4,4,3.3
					c0.7,1.8,0.9,4.1,0.5,6.8c-0.4,2.4-1.4,4.6-2.8,6.2C78.1,51.3,76.3,52.2,74.7,52.2z M76.8,34.2c-2.8,0-4.8,2.4-5.4,6.7
					c-0.4,2.7-0.4,5.2,0,7c0.5,2,1.4,3.1,2.7,3.3c0.2,0,0.4,0,0.6,0c3,0,5.9-3.5,6.6-7.9c0.4-2.5,0.3-4.6-0.4-6.2
					c-0.6-1.5-1.8-2.5-3.2-2.7C77.3,34.2,77.1,34.2,76.8,34.2z"/>
			</g>
			<g>
				<path fill="#13120D" stroke="#000000" stroke-width="0.8" stroke-miterlimit="10" d="M76.9,40.6c0.2-1.7-0.8-3.1-2.2-3.3
					c-1.4-0.1-2.6,1.1-2.8,2.8c-0.2,1.7,0.8,3.1,2.2,3.3C75.5,43.6,76.7,42.3,76.9,40.6z"/>
				<path fill="#FFFFFF" stroke="#000000" stroke-width="0.8" stroke-miterlimit="10" d="M74.3,43.9L74.3,43.9c-0.1,0-0.2,0-0.3,0
					c-1.6-0.2-2.8-1.9-2.6-3.8c0.2-1.8,1.5-3.2,3.1-3.2c0.1,0,0.2,0,0.3,0c0.8,0.1,1.5,0.5,2,1.3c0.5,0.7,0.7,1.6,0.6,2.5
					C77.2,42.5,75.9,43.9,74.3,43.9z M74.5,37.8c-1,0-1.9,1-2.1,2.4c-0.1,1.4,0.6,2.6,1.7,2.7c0.1,0,0.1,0,0.2,0c1,0,1.9-1,2.1-2.3
					c0.1-0.7-0.1-1.4-0.4-1.9c-0.3-0.5-0.8-0.8-1.3-0.8C74.6,37.8,74.6,37.8,74.5,37.8z"/>
			</g>
			<g>
				<path fill="#F5DFD0" stroke="#000000" stroke-width="0.8" stroke-miterlimit="10" d="M55.9,55.9c2.7-4.2,7.6-4.5,9.8,0.6
					c0,0,1.1,2.4,0.1,3.2c-1,0.8-10.5,0.1-11.3,0C53.8,59.6,55.9,55.9,55.9,55.9z"/>
				<path fill="#FFFFFF" stroke="#000000" stroke-width="0.8" stroke-miterlimit="10" d="M62.2,60.6c-3.2,0-7.3-0.3-7.8-0.4
					c-0.2,0-0.4-0.2-0.5-0.4c-0.2-0.3-0.1-0.9,0.6-2.5c0.4-0.9,0.8-1.6,0.9-1.7l0,0c1.4-2.2,3.4-3.4,5.4-3.4c2.2,0,4.1,1.5,5.3,4.1
					c0.1,0.3,1.2,2.7,0,3.8C65.8,60.4,65.1,60.6,62.2,60.6z M54.9,59.3c1.1,0.1,4.6,0.4,7.4,0.4c2.7,0,3.2-0.2,3.2-0.3
					c0.5-0.5,0-2-0.2-2.6c-1-2.2-2.6-3.5-4.4-3.5c-1.7,0-3.4,1.1-4.6,2.9C55.5,57.5,55,58.8,54.9,59.3z"/>
			</g>
			<g>
				<path fill="#13120D" stroke="#000000" stroke-width="0.8" stroke-miterlimit="10" d="M60.7,60.9c-1.1,0-0.9,1.8-1.5,3.2
					c-0.4,1-1.5,1.6-1.5,1.6S56.9,66,55.6,66c-0.9,0.1-1.5,0-2.2-0.7c-0.7-0.7-3.8-3.4-3.8-3.4s-1.5-2.1-2.7-0.7
					c-1.2,1.4,1.4,1.5,2.2,1.7c0.8,0.2,3.8,3.8,4,4.4c0.2,0.6,2.4,0.6,3.1,0.5c0.6,0,1.3,0.1,1.6,0.4c0.2,0.3,0.3,0.3,0.6,0.7
					c0.3,0.4,0.2,0.9-0.2,1.6c-0.2,0.8-0.1,1.7,0.4,2.5c0.5,0.8,1.4,1,1.4,1s0.6,0.3,2,0c1.4-0.3,1.8-1.6,1.8-1.6s0.6-1.6,0-2.3
					c-0.6-0.7-0.3-1,0-1.5c0.3-0.6,1.2-0.5,1.2-0.5l1.4,0.2l3.1-0.2l4.1-1.5c0,0,2.9-1.3,2.9-1.8c0-0.6-0.7-0.8-1.2-0.6
					c-0.6,0.2-1.5,0.6-1.5,0.6s-1.8,0.7-2.4,1.1c-0.6,0.4-0.8,0.8-1.9,1.2c-1.1,0.4-2.3,0.6-3,0.4c-1.1-0.2-2.4-0.9-3.7-3.2
					C61.4,62.8,61.9,60.9,60.7,60.9z"/>
				<path fill="#FFFFFF" stroke="#000000" stroke-width="0.8" stroke-miterlimit="10" d="M60.7,74.7c-0.5,0-0.9-0.1-1-0.1
					c-0.2-0.1-1.1-0.3-1.6-1.2c-0.5-0.9-0.7-1.9-0.5-2.8l0-0.1l0-0.1c0.4-0.7,0.2-1,0.2-1.1c-0.2-0.2-0.2-0.3-0.3-0.4
					c-0.1-0.1-0.1-0.1-0.2-0.3c-0.1-0.1-0.4-0.2-1-0.2c-0.1,0-0.1,0-0.2,0c-0.1,0-0.3,0-0.5,0c-2.7,0-2.9-0.6-3-0.9
					c-0.2-0.6-3-3.9-3.6-4.1c-0.1,0-0.3-0.1-0.5-0.1c-0.9-0.2-2.1-0.4-2.3-1.1c-0.1-0.4,0-0.8,0.4-1.3c0.5-0.5,0.9-0.6,1.3-0.6
					c1.1,0,1.9,1.1,2.1,1.3c0.4,0.3,3.1,2.7,3.7,3.4c0.5,0.5,0.9,0.5,1.4,0.5c0.1,0,0.2,0,0.4,0c1.1-0.1,1.9-0.3,2.1-0.4
					c0.2-0.1,0.9-0.6,1.2-1.3c0.2-0.4,0.3-0.9,0.4-1.4c0.2-1,0.4-2.1,1.5-2.1c0,0,0,0,0.1,0c1,0,1.2,0.9,1.4,1.7
					c0.1,0.6,0.3,1.2,0.7,1.7l0,0l0,0c1,1.8,2.1,2.8,3.3,3l0,0l0,0c0.2,0.1,0.4,0.1,0.6,0.1c0.6,0,1.3-0.2,2.1-0.4
					c0.7-0.3,1-0.5,1.3-0.8c0.2-0.1,0.3-0.3,0.5-0.4c0.6-0.4,2.4-1.1,2.4-1.1l0,0l1.5-0.6c0.2-0.1,0.4-0.1,0.6-0.1
					c0.4,0,0.8,0.2,1.1,0.4c0.2,0.2,0.3,0.5,0.3,0.8c0,0.4-0.3,0.8-1.7,1.5c-0.7,0.4-1.4,0.7-1.5,0.7l0,0l-4.1,1.5l-3.2,0.2
					l-1.4-0.2c0,0,0,0-0.1,0c-0.2,0-0.5,0.1-0.6,0.2c0,0.1-0.1,0.2-0.1,0.2c-0.2,0.4-0.2,0.4,0.1,0.7c0.8,0.9,0.2,2.6,0.1,2.8
					c-0.1,0.2-0.6,1.6-2.2,1.9C61.5,74.6,61.1,74.7,60.7,74.7z M60.1,73.6c0,0,0.3,0.1,0.7,0.1c0.3,0,0.7,0,1-0.1
					c1.1-0.2,1.4-1.2,1.5-1.3l0,0c0.2-0.4,0.4-1.4,0.1-1.8c-0.7-0.8-0.5-1.3-0.2-1.9c0-0.1,0.1-0.1,0.1-0.2c0.2-0.5,0.8-0.8,1.5-0.8
					c0.1,0,0.1,0,0.2,0l0,0l1.2,0.1c0,0,0,0-0.1,0c-1.5-0.3-2.8-1.4-4-3.4c-0.5-0.6-0.7-1.4-0.9-2c-0.2-0.8-0.3-1-0.5-1h0
					c-0.2,0-0.4,0.3-0.5,1.3c-0.1,0.5-0.2,1.1-0.5,1.6c-0.5,1.1-1.6,1.8-1.7,1.8l0,0l0,0c0,0-1,0.3-2.4,0.4c-0.2,0-0.3,0-0.5,0
					c-0.6,0-1.3-0.1-2.1-0.8c-0.7-0.7-3.7-3.4-3.8-3.4l0,0l0,0c-0.2-0.3-0.8-1-1.4-1c-0.2,0-0.4,0.1-0.5,0.3
					c-0.2,0.2-0.2,0.3-0.2,0.3c0.1,0.2,0.6,0.3,1.6,0.5c0.2,0,0.4,0.1,0.5,0.1c0.2,0,0.7,0.2,2.5,2.2c0.5,0.6,1.6,1.9,1.8,2.4
					c0.2,0.1,0.9,0.3,2.1,0.3c0.2,0,0.4,0,0.5,0c0.1,0,0.2,0,0.2,0c0.3,0,1.3,0,1.7,0.6c0.1,0.1,0.1,0.2,0.2,0.2
					c0.1,0.1,0.2,0.2,0.4,0.5c0.4,0.6,0.4,1.2-0.1,2.1c-0.1,0.4-0.1,1.2,0.4,2c0.4,0.6,1,0.7,1,0.7L60.1,73.6L60.1,73.6z M73.7,65.1
					c-0.5,0.2-1.8,0.8-2.3,1c-0.2,0.1-0.3,0.2-0.4,0.3c-0.3,0.3-0.7,0.6-1.6,0.9c-0.2,0.1-0.4,0.1-0.6,0.2l0.4,0l4-1.5
					c1.2-0.5,2.3-1.2,2.6-1.5c0,0,0,0,0,0c-0.1-0.1-0.2-0.1-0.3-0.1c-0.1,0-0.1,0-0.2,0L73.7,65.1z"/>
			</g>
			<g>
				<path fill="#FFFFFF" stroke="#000000" stroke-width="0.8" stroke-miterlimit="10" d="M62.4,67.3c0,0.5-0.8,0.9-1.8,0.9
					c-1,0-1.8-0.4-1.8-0.9c0-0.5,0.8-0.9,1.8-0.9C61.6,66.5,62.4,66.8,62.4,67.3z"/>
				<path fill="#FFFFFF" stroke="#000000" stroke-width="0.8" stroke-miterlimit="10" d="M60.6,68.7c-1.3,0-2.2-0.6-2.2-1.4
					c0-0.8,0.9-1.4,2.2-1.4c1.3,0,2.2,0.6,2.2,1.4C62.9,68.1,61.9,68.7,60.6,68.7z M59.4,67.3c0.1,0.1,0.5,0.4,1.3,0.4
					c0.8,0,1.2-0.3,1.3-0.4c-0.1-0.1-0.5-0.4-1.3-0.4C59.9,66.9,59.4,67.2,59.4,67.3z"/>
			</g>
			<g>
				<path fill="#33387D" stroke="#000000" stroke-width="0.8" stroke-miterlimit="10" d="M64.7,129.1c8.2-0.3,21.8-3,22.4-3.1
					c0.6-0.1,1.6-0.4,2,0c0.4,0.4,1,1,1,1l18.2,18.5c0,0,2.4,1.8,2.4,2.7c0,0.9,0,2.9,0,2.9v8.5v1.7v1.3l13.2,63.8
					c0,0,0.1,0.7,0,1.4c-0.1,0.8-1.2,1.2-1.2,1.2l-1.9,1.2c0,0-1.4,0.8-1.9-0.3c-0.5-1.1-0.5-1.1-0.5-1.1l-1.7-1.4
					c0,0-6.4-3.8-9.1-4.8c-2.7-1-4.8-0.4-5.5,0.5c-0.7,0.9-4.3,5.3-4.3,5.3s-1.1,2.5-2.1,0.4c-2-4.1-10.8-22-10.8-22l-11-22.3
					l-3.4-6c0,0-1.1-1.2-1.7,0c-0.3,0.5-21,57-21.2,57.4c-0.2,0.3-0.6,0.1-0.6,0.1s-3.4-2-5-2.9c-1.6-0.9-7.1-4.1-7.1-4.1
					s-1.8-1-2.9-1.2c-1-0.2-5.5,0.6-5.5,0.6s-3.5,1.2-3.7,0c-0.2-1.3-0.3-1.4-0.3-1.4v-50.4l-0.6-7.7l-1.3-4.3l-4.2-14.7
					c0,0-0.2-0.7,0-1c0.1-0.2,5.6-5.8,9.7-10.7c2.6-3,4.5-6.1,4.5-6.1l3.8-4.8l1.9-1.3l1.9-1.1h1.9l2.9,0.8c0,0,4.4,1.3,7.3,2.1
					C53.3,128.6,61.4,129.2,64.7,129.1z"/>
				<path fill="#13120D" stroke="#000000" stroke-width="0.8" stroke-miterlimit="10" d="M47.1,236c-0.1,0-0.3-0.1-0.3-0.1
					c0,0-3.4-2-5-2.9c-1.6-0.9-7.1-4.1-7.1-4.1c0,0-1.8-1-2.9-1.2c-0.1,0-0.3,0-0.5,0c-1.5,0-4.9,0.6-5,0.6c0,0-1.5,0.5-2.6,0.5
					c-0.7,0-1-0.2-1.1-0.6c-0.2-1.2-0.3-1.4-0.3-1.4l0,0v-50.4l-0.6-7.7l-1.3-4.3l-4.2-14.7c0,0-0.2-0.7,0-1c0,0,0.1-0.2,0.4-0.4
					c3.9-4.1,7-7.5,9.3-10.3c2.5-3,4.4-6.1,4.5-6.1l3.8-4.8l1.9-1.3l1.9-1.1l1.9,0l2.9,0.8c0,0,4.4,1.3,7.3,2.1
					c2.8,0.7,10.1,1.3,13.8,1.3c0.2,0,0.4,0,0.5,0c8.2-0.3,21.8-3,22.4-3.1c0.1,0,0.2,0,0.3-0.1c0.3-0.1,0.7-0.2,1.1-0.2
					c0.3,0,0.6,0.1,0.7,0.2l1,1l18.2,18.5c0.1,0.1,2.4,1.8,2.4,2.7v14.4l13.2,63.8c0,0,0.1,0.7,0,1.5c-0.1,0.8-1.2,1.2-1.2,1.2
					l-1.9,1.2c0,0-0.5,0.3-1,0.3c-0.4,0-0.8-0.2-0.9-0.6c-0.3-0.8-0.4-1-0.5-1.1l0,0l-1.7-1.4c-0.1,0-6.4-3.8-9.1-4.8
					c-0.9-0.3-1.8-0.5-2.7-0.5c-1.2,0-2.3,0.4-2.8,1c-0.7,0.9-4.2,5.1-4.3,5.3c0,0.1-0.6,1.3-1.2,1.3c-0.3,0-0.6-0.3-0.9-0.8
					c-2-4.1-10.8-21.8-10.8-22l-11-22.3l-3.4-6l0,0c0,0-0.5-0.5-1-0.5c-0.3,0-0.5,0.2-0.7,0.5c-0.1,0.3-6.3,17-11.8,31.8
					c-5,13.7-9.4,25.4-9.5,25.6C47.4,236,47.3,236,47.1,236z M31.4,227.7c0.2,0,0.4,0,0.5,0c1,0.2,2.9,1.2,2.9,1.2
					c0,0,5.5,3.2,7.1,4.1c1.6,0.9,5,2.9,5,2.9s0.1,0.1,0.2,0.1c0.1,0,0.2-0.1,0.3-0.2c0.1-0.2,4.6-12.5,9.5-25.6
					c5.7-15.5,11.6-31.5,11.8-31.8c0.2-0.3,0.4-0.5,0.7-0.5c0.5,0,1,0.5,1,0.5l3.4,6l11,22.3c0.1,0.2,8.9,17.9,10.8,22
					c0.3,0.5,0.5,0.8,0.8,0.8c0.6,0,1.2-1.2,1.2-1.2l0,0c0,0,3.6-4.4,4.3-5.3c0.5-0.6,1.6-1,2.8-1c0.9,0,1.8,0.2,2.7,0.5
					c2.7,0.9,9,4.8,9.1,4.8l1.7,1.5l0,0c0,0.1,0.1,0.3,0.5,1.1c0.2,0.4,0.5,0.6,0.9,0.6c0.5,0,1-0.3,1-0.3l1.9-1.2
					c0,0,1.1-0.4,1.2-1.2c0.1-0.8,0-1.4,0-1.4l-13.2-63.8v-3v-11.4c0-0.9-2.4-2.6-2.4-2.7L90,127l-1-1c-0.1-0.1-0.4-0.2-0.7-0.2
					c-0.3,0-0.7,0.1-1.1,0.2c-0.1,0-0.2,0-0.3,0.1c-0.6,0.1-14.2,2.8-22.4,3.1c-0.2,0-0.3,0-0.5,0c-3.6,0-11-0.5-13.8-1.3
					c-2.9-0.8-7.3-2.1-7.3-2.1l-2.9-0.8h-1.9l-1.9,1.1l-1.9,1.3l-3.8,4.8c0,0-1.9,3.1-4.5,6.1c-2.3,2.8-5.5,6.2-9.3,10.3
					c-0.2,0.2-0.3,0.4-0.4,0.4c-0.2,0.2,0,0.9,0,0.9l4.2,14.7l1.3,4.3l0.6,7.7v50.4c0,0,0.1,0.3,0.3,1.4c0.1,0.4,0.4,0.5,1,0.5
					c1.1,0,2.6-0.5,2.6-0.5C26.5,228.3,29.9,227.7,31.4,227.7z"/>
			</g>
			<g>
				<path fill="#33387D" stroke="#000000" stroke-width="0.8" stroke-miterlimit="10" d="M64.7,129.1c8.2-0.3,21.8-3,22.4-3.1
					c0.6-0.1,1.6-0.4,2,0c0.4,0.4,1,1,1,1l18.2,18.5c0,0,2.4,1.8,2.4,2.7c0,0.9,0,2.9,0,2.9v8.5v1.7v1.3l13.2,63.8
					c0,0,0.1,0.7,0,1.4c-0.1,0.8-1.2,1.2-1.2,1.2l-1.9,1.2c0,0-1.4,0.8-1.9-0.3c-0.5-1.1-0.5-1.1-0.5-1.1l-1.7-1.4
					c0,0-6.4-3.8-9.1-4.8c-2.7-1-4.8-0.4-5.5,0.5c-0.7,0.9-4.3,5.3-4.3,5.3s-1.1,2.5-2.1,0.4c-2-4.1-10.8-22-10.8-22l-11-22.3
					l-3.4-6c0,0-1.1-1.2-1.7,0c-0.3,0.5-21,57-21.2,57.4c-0.2,0.3-0.6,0.1-0.6,0.1s-3.4-2-5-2.9c-1.6-0.9-7.1-4.1-7.1-4.1
					s-1.8-1-2.9-1.2c-1-0.2-5.5,0.6-5.5,0.6s-3.5,1.2-3.7,0c-0.2-1.3-0.3-1.4-0.3-1.4v-50.4l-0.6-7.7l-1.3-4.3l-4.2-14.7
					c0,0-0.2-0.7,0-1c0.1-0.2,5.6-5.8,9.7-10.7c2.6-3,4.5-6.1,4.5-6.1l3.8-4.8l1.9-1.3l1.9-1.1h1.9l2.9,0.8c0,0,4.4,1.3,7.3,2.1
					C53.3,128.6,61.4,129.2,64.7,129.1z"/>
				<path fill="#13120D" stroke="#000000" stroke-width="0.8" stroke-miterlimit="10" d="M47.1,236.1c-0.2,0-0.3-0.1-0.3-0.1l0,0
					c0,0-3.4-1.9-5-2.9c-1.6-0.9-7.1-4.1-7.1-4.1c0,0-1.8-0.9-2.8-1.2c-0.1,0-0.3,0-0.5,0c-1.5,0-4.7,0.6-4.9,0.6
					c-0.1,0-1.6,0.5-2.6,0.5c-0.7,0-1.1-0.2-1.2-0.7c-0.2-1.2-0.3-1.4-0.3-1.4l0,0l0,0v-50.4l-0.6-7.6l-1.3-4.3l-4.2-14.7
					c0-0.1-0.2-0.8,0-1.1c0,0,0.1-0.1,0.4-0.4c3.9-4.1,7-7.5,9.3-10.3c2.5-3,4.4-6.1,4.5-6.1l0,0l3.8-4.8l1.9-1.3l1.9-1.1h2l3,0.8
					c0,0,4.4,1.3,7.3,2.1c2.7,0.7,10.1,1.3,13.7,1.3c0.2,0,0.4,0,0.5,0c8.1-0.3,21.8-3,22.4-3.1c0.1,0,0.2,0,0.3-0.1
					c0.4-0.1,0.8-0.2,1.1-0.2c0.4,0,0.6,0.1,0.8,0.3l1,1l18.2,18.5c0.3,0.2,2.5,1.8,2.5,2.8v14.4l13.2,63.8c0,0,0.1,0.7,0,1.5
					c-0.1,0.8-1.1,1.2-1.3,1.3l-1.9,1.2c0,0-0.5,0.3-1.1,0.3c-0.5,0-0.8-0.2-1-0.7c-0.2-0.6-0.4-0.8-0.4-1c0,0,0-0.1,0-0.1l-1.6-1.4
					c-0.3-0.2-6.5-3.8-9.1-4.8c-0.9-0.3-1.8-0.5-2.7-0.5c-1.2,0-2.2,0.4-2.7,0.9c-0.7,0.8-4.1,5-4.3,5.3c-0.1,0.2-0.6,1.3-1.3,1.3
					c-0.4,0-0.7-0.3-1-0.9c-2-4.1-10.8-21.8-10.8-22l-11-22.3l-3.4-5.9c-0.1-0.1-0.5-0.5-0.9-0.5c-0.2,0-0.4,0.1-0.6,0.4
					c-0.2,0.4-6.3,17-11.8,31.7c-5.8,15.8-9.4,25.5-9.5,25.6C47.4,236.1,47.2,236.1,47.1,236.1z M31.4,227.6c0.2,0,0.4,0,0.6,0
					c1.1,0.2,2.8,1.2,2.9,1.2c0,0,5.5,3.2,7.1,4.1c1.6,0.9,5,2.9,5,2.9c0,0,0.1,0.1,0.2,0.1c0.1,0,0.2,0,0.2-0.1
					c0.1-0.3,4.7-12.6,9.5-25.6c7-19,11.6-31.5,11.8-31.8c0.2-0.4,0.5-0.6,0.8-0.6c0.6,0,1.1,0.6,1.1,0.6l0,0l3.4,6l11,22.3
					c0.1,0.2,8.9,17.9,10.8,22c0.2,0.5,0.5,0.7,0.8,0.7c0.5,0,0.9-0.8,1.1-1.2l0,0l0,0c0,0,3.6-4.4,4.3-5.3c0.5-0.6,1.6-1,2.9-1
					c0.9,0,1.8,0.2,2.7,0.5c2.7,1,9.1,4.8,9.1,4.8l0,0l1.8,1.5l0,0c0,0.1,0.2,0.4,0.4,1c0.1,0.3,0.4,0.5,0.8,0.5
					c0.5,0,0.9-0.3,1-0.3l1.9-1.2c0,0,1-0.4,1.1-1.1c0.1-0.7,0-1.4,0-1.4l-13.2-63.8v-14.4c0-0.7-1.7-2.1-2.4-2.6l0,0l-18.2-18.5
					l-1-1c-0.1-0.1-0.3-0.2-0.6-0.2c-0.3,0-0.7,0.1-1.1,0.2c-0.1,0-0.2,0-0.3,0.1c-0.6,0.1-14.2,2.8-22.4,3.1c-0.2,0-0.4,0-0.5,0
					c-3.6,0-11-0.5-13.8-1.3c-2.9-0.8-7.3-2.1-7.3-2.1l-2.9-0.8h-1.9l-1.8,1.1l-1.9,1.3l-3.8,4.8c-0.1,0.2-2,3.2-4.5,6.2
					c-2.3,2.8-5.5,6.2-9.3,10.3c-0.2,0.2-0.3,0.4-0.4,0.4c-0.1,0.1-0.1,0.6,0,0.8l4.2,14.7l1.3,4.3v0l0.6,7.7v50.4
					c0,0.1,0.1,0.4,0.3,1.4c0.1,0.3,0.4,0.5,0.9,0.5c1.1,0,2.5-0.5,2.6-0.5l0,0C26.6,228.2,29.9,227.6,31.4,227.6z"/>
			</g>
			<g>
				<path fill="#E41F1B" stroke="#000000" stroke-width="0.8" stroke-miterlimit="10" d="M27,57c-3.4,2.4-5,3.4-7.2,6.6
					c-8,11.9-12.4,22.9-14.6,32.9c-6.4,29.9,8.9,50,10.9,52.4c0.6,0.7,2.1-1.6,5.4-5.3c2.3-2.6,4.6-5.3,6.8-8.1
					c3.4-4.2,6.2-8.4,6.2-8.4l-2.1-3.4c0,0-1.1-1-2.2-4.6c-1-3.7-3-18.6-2.6-17.6c0.7,2.1,3.3,15.1,4.1,16.7
					c0.8,1.6,1.7,2.6,2.4,3.3c0.8,0.7,2.5,1.6,3.5,2.5c4.5,3.5,20.9,5.3,24.1,5.2c4.3-0.1,18.8-1.1,21.5-3c2.7-1.9,5.1-4.4,6.4-7.2
					c1.2-2.8,4.1-15.9,4.7-16.6c0.6-0.7-3.8,19.2-4.5,20.7c-0.5,1-2.6,2.8-2.6,2.8l23.3,21.9c0,0,10.4-25.2,9.1-48.9
					C118.3,75.3,99,58.5,97.8,57.1c-1.2-1.4-2.4-1.3-2.4-1.3s-0.5-0.2-1.3,2.1c-0.6,2.5-2.3,5.3-3.8,7.2c-0.7,0.9-2.5,2.3-4.2,3.7
					c-3.3,2.7-12.7,4.5-17.6,6c-5,1.5-9.9,1.5-15.9-1c-5.2-2.2-9.3-3.9-13-8.1c-3.7-4.2-5.6-5.8-5.6-5.8C33,57.9,29.4,55.3,27,57z"
					/>
				<path fill="#13120D" stroke="#000000" stroke-width="0.8" stroke-miterlimit="10" d="M16.4,149.1c-0.1,0-0.3-0.1-0.3-0.2
					c-1.2-1.5-5.4-7-8.6-15.9c-1.9-5.2-3.1-10.6-3.6-16.1c-0.6-6.7-0.2-13.6,1.3-20.5c2.4-11,7.3-22.1,14.6-33c2-3,3.6-4.1,6.5-6.1
					c0.2-0.2,0.5-0.3,0.7-0.5c0.5-0.4,1.1-0.6,1.8-0.6c2.2,0,4.6,2,5.5,3.4c0.2,0.2,2.1,1.8,5.6,5.8c3.8,4.3,8,6,12.9,8.1
					c3.2,1.4,6.2,2,9.2,2c2.1,0,4.3-0.3,6.6-1c1.3-0.4,2.9-0.8,4.5-1.2c4.7-1.2,10.6-2.7,13.1-4.7l0.2-0.2c1.6-1.3,3.3-2.6,3.9-3.5
					c0.9-1.2,3.1-4.3,3.8-7.1l0,0c0.7-1.9,1.2-2.2,1.4-2.2c0,0,0,0,0,0c0,0,0,0,0,0c0.3,0,1.4,0.1,2.4,1.3c0.1,0.1,0.3,0.3,0.7,0.7
					c1.9,1.8,6.8,6.7,11.5,13.8c5.9,9,9.2,18.2,9.7,27.4c0.7,12.2-1.8,24.9-4,33.3c-2.4,9.2-5,15.5-5.1,15.6l-0.1,0.2l-23.5-22.1
					l0.1-0.1c0,0,2-1.8,2.5-2.8c0.3-0.6,1.4-5,2.6-10.5c1-4.6,1.8-8.3,1.9-9.6c-0.4,1.1-1.1,3.9-1.8,6.7c-1,3.7-2,8-2.7,9.4
					c-1.4,3.2-4.2,5.7-6.4,7.3c-2.7,1.9-16.9,2.9-21.6,3c-0.1,0-0.2,0-0.2,0c-3.4,0-19.4-1.7-24-5.2l0,0c-0.6-0.5-1.4-1-2.1-1.5
					c-0.6-0.4-1.1-0.7-1.4-1c-0.9-0.8-1.7-1.9-2.5-3.3c-0.5-0.9-1.6-5.8-2.5-10.1c-0.5-2.3-1-4.4-1.3-5.7c0.3,3.2,1.7,13.4,2.5,16.6
					c1,3.6,2.1,4.6,2.1,4.6l0,0l0,0l2.1,3.5l0,0.1c0,0-2.9,4.2-6.2,8.4c-2.5,3.1-5.1,6.1-6.8,8.1c-0.8,0.9-1.5,1.7-2.1,2.4
					C17.9,148,17,149.1,16.4,149.1z M28.7,56.6c-0.6,0-1.2,0.2-1.7,0.5c-0.2,0.2-0.5,0.3-0.7,0.5c-2.9,2-4.5,3.1-6.5,6.1
					C12.6,74.5,7.7,85.5,5.4,96.5c-1.5,6.9-1.9,13.7-1.3,20.4c0.5,5.5,1.7,10.8,3.6,16c3.2,8.8,7.4,14.3,8.6,15.8
					c0,0.1,0.1,0.1,0.1,0.1c0.5,0,1.5-1.2,2.9-2.9c0.6-0.7,1.3-1.5,2.1-2.4c1.7-2,4.4-5,6.8-8.1c3.1-3.9,5.8-7.7,6.2-8.3l-2-3.3
					c-0.1-0.1-1.2-1.2-2.2-4.7c-0.4-1.5-1.1-5.3-1.7-10c-0.3-1.9-0.5-3.8-0.7-5.2c-0.3-2.3-0.2-2.4-0.2-2.5l0-0.1l0.1,0
					c0.1,0,0.1,0.1,0.2,0.1c0.3,0.9,0.9,3.5,1.6,6.6c1,4.3,2,9.2,2.5,10.1c0.7,1.4,1.5,2.5,2.4,3.2c0.3,0.3,0.9,0.6,1.4,1
					c0.7,0.5,1.5,1,2.1,1.5c2.4,1.8,7.9,3.1,12.2,3.9c5.1,0.9,9.9,1.3,11.6,1.3c0.1,0,0.2,0,0.2,0c4.6-0.1,18.8-1.1,21.4-3
					c2.1-1.5,5-4,6.3-7.2c0.6-1.4,1.7-5.6,2.6-9.4c1.1-4.3,1.8-6.9,2.1-7.3c0,0,0.1-0.1,0.1-0.1c0.1,0,0.1,0,0.1,0.1
					c0,0.1,0.1,0.2-0.5,3.3c-0.3,1.8-0.8,4.2-1.4,6.8c-1,4.6-2.3,10-2.7,10.7c-0.5,0.9-2.1,2.4-2.5,2.8l23,21.7
					c0.4-1.1,2.8-7.1,5-15.4c2.2-8.4,4.7-21.1,4-33.2c-0.5-9.1-3.8-18.3-9.7-27.3c-4.7-7.1-9.6-12-11.5-13.8
					c-0.3-0.3-0.6-0.6-0.7-0.7c-1-1.2-2.1-1.2-2.2-1.2c0,0,0,0,0,0l0,0l0,0c0,0-0.5,0.1-1.1,2c-0.7,2.9-2.9,6-3.9,7.2
					c-0.7,0.9-2.3,2.2-3.9,3.5l-0.2,0.2c-2.5,2-8.4,3.5-13.2,4.8c-1.7,0.4-3.2,0.8-4.5,1.2c-2.3,0.7-4.5,1-6.7,1c-3,0-6-0.7-9.3-2
					c-4.9-2.1-9.2-3.9-13-8.2C36,61.5,34,59.9,34,59.9l0,0l0,0C33.2,58.5,30.9,56.6,28.7,56.6z"/>
			</g>
			<g>
				<path fill="#ECC5A2" stroke="#000000" stroke-width="0.8" stroke-miterlimit="10" d="M45.2,70.4C38.9,66.8,32,57.5,32,57.5
					s-2.9-7.3-2-13c0,0,0.6-5,1.6-7.6c1-2.6,3-6,3-8.1c0-2.1,0-1.7-0.6-3.2c-0.6-1.5-4.5-5.9-6.5-7.3c-2.1-1.4-1.9-2.9-1.9-2.9
					s-0.5-1.5,1.1-3.2c1.6-1.7,0.5-0.8,4.6-4.5C35.5,4,39.2,6,39.2,6s2.2,1.3,4.1,2.6c1.9,1.3,2.6,2,4.5,2.6
					c1.9,0.6,5.3,0.1,5.3,0.1s5.7-1,9.9-1.4c4.1-0.3,6.5-0.1,9.1,0.4c2.6,0.5,7.7,3.5,10.5,3.5c2.9,0,6.8-1.1,8.3-1.4
					c1.5-0.3,4.2-0.3,6.7,0.8c2.6,1.1,3.3,2.7,3.3,2.7s1.5,2.7,1.5,4.8c0,2.1-0.4,4.2-0.8,5.6c-0.4,1.4-2,3.2-3.8,3.5
					c-1.9,0.3-2.2,2.4-2.2,2.4c-1.8,6.6-0.1,17.1-0.2,19.4c-0.1,2.4,0,3.2-0.4,5.1c-0.4,1.9-2.8,6.1-2.8,6.1s-1.5,2.1-5,5.4
					c-5.2,4.9-22.3,7.6-25.2,7.6C59,75.8,54.1,75.1,45.2,70.4z"/>
				<path fill="#13120D" stroke="#000000" stroke-width="0.8" stroke-miterlimit="10" d="M61.9,75.9L61.9,75.9c-1.9,0-4-0.3-6.2-1
					c-3.1-0.9-6.6-2.4-10.6-4.5C38.9,66.9,32,57.6,31.9,57.5l0,0c0-0.1-2.9-7.4-2-13.1c0,0,0.6-5.1,1.6-7.6c0.3-0.8,0.7-1.8,1.2-2.7
					c0.9-1.9,1.8-3.9,1.8-5.3c0-1.7,0-1.7-0.4-2.5c-0.1-0.2-0.2-0.4-0.3-0.6c-0.6-1.4-4.4-5.8-6.5-7.3c-2-1.4-2-2.8-2-3
					c-0.1-0.2-0.4-1.7,1.2-3.3c0.4-0.4,0.6-0.7,0.8-0.9c0.5-0.6,0.7-0.8,3.8-3.6c1.2-1,3.1-2.3,5.5-2.3c1.5,0,2.5,0.5,2.5,0.5l0,0
					c0,0,2.2,1.4,4.1,2.6c0.4,0.3,0.7,0.5,1,0.7c1.2,0.9,1.9,1.4,3.4,1.8c0.6,0.2,1.4,0.3,2.4,0.3c1.5,0,2.8-0.2,2.8-0.2
					c0.1,0,5.8-1,9.9-1.4c1.3-0.1,2.4-0.1,3.5-0.1c2.4,0,4.2,0.3,5.7,0.5c1.1,0.2,2.6,0.8,4.2,1.5c2.2,0.9,4.7,2,6.3,2
					c2.3,0,5.4-0.7,7.2-1.2c0.4-0.1,0.8-0.2,1.1-0.3c0.6-0.1,1.3-0.2,2-0.2c1.2,0,2.9,0.2,4.8,1c2.6,1.1,3.3,2.7,3.4,2.8
					c0.1,0.1,1.5,2.7,1.5,4.8c0,2.6-0.6,5-0.8,5.6c-0.4,1.3-1.9,3.3-3.9,3.6c-1.8,0.3-2.1,2.3-2.1,2.3l0,0c-1.3,4.8-0.7,11.8-0.4,16
					c0.1,1.5,0.2,2.8,0.2,3.4c0,0.6,0,1.1-0.1,1.6c0,1.3-0.1,2.1-0.4,3.6c-0.4,1.9-2.7,6-2.8,6.2l0,0c0,0-1.6,2.2-5,5.4
					c-2.8,2.7-8.9,4.6-13.5,5.7C68.6,75.2,63.5,75.9,61.9,75.9z M32.2,57.4c0.3,0.4,7,9.4,13.2,12.8c9.1,4.8,13.8,5.4,16.6,5.4h0
					c1.5,0,6.6-0.7,11.7-1.9c4.6-1.1,10.6-3,13.4-5.6c3.3-3.2,4.9-5.3,5-5.4c0.1-0.2,2.4-4.2,2.8-6.1c0.3-1.4,0.3-2.2,0.3-3.5
					c0-0.5,0-1,0.1-1.6c0-0.6-0.1-1.8-0.2-3.4c-0.3-4.2-0.9-11.3,0.4-16.1c0-0.1,0.4-2.2,2.3-2.5c1.9-0.3,3.4-2.2,3.7-3.4
					c0.2-0.7,0.8-3,0.8-5.5c0-2-1.5-4.7-1.5-4.7c0,0-0.8-1.6-3.2-2.7c-1.8-0.8-3.6-1-4.7-1c-0.7,0-1.4,0.1-1.9,0.2
					c-0.3,0.1-0.7,0.2-1.1,0.3c-1.8,0.4-4.9,1.2-7.2,1.2c-1.7,0-4.1-1-6.4-2c-1.6-0.7-3.1-1.3-4.1-1.5c-1.5-0.3-3.2-0.5-5.6-0.5
					c-1,0-2.2,0-3.4,0.1c-4.1,0.3-9.8,1.3-9.9,1.4c0,0-1.4,0.2-2.9,0.2c-1,0-1.9-0.1-2.5-0.3c-1.5-0.4-2.3-1-3.5-1.8
					c-0.3-0.2-0.7-0.5-1-0.7c-1.8-1.3-3.9-2.6-4.1-2.6c-0.1,0-1-0.5-2.4-0.5c-1.8,0-3.6,0.7-5.3,2.2c-3.1,2.7-3.3,2.9-3.8,3.5
					c-0.2,0.2-0.4,0.5-0.8,0.9c-1.5,1.6-1.1,3.1-1.1,3.1l0,0l0,0c0,0-0.1,1.4,1.9,2.8c2.2,1.5,6,5.9,6.6,7.4
					c0.1,0.3,0.2,0.5,0.3,0.6c0.3,0.8,0.4,0.9,0.4,2.6c0,1.4-0.9,3.4-1.9,5.4c-0.4,1-0.9,1.9-1.2,2.7c-0.9,2.5-1.6,7.5-1.6,7.6
					C29.3,50,32,57,32.2,57.4z"/>
			</g>
			<g>
				<path fill="#FFFFFF" stroke="#000000" stroke-width="0.8" stroke-miterlimit="10" d="M54,40.6c-0.3,5.2-2.8,9.2-6.2,9
					c-3.4-0.2-4.9-4.6-4.6-9.8c0.3-5.2,2.7-7.9,6.1-7.7C52.8,32.3,54.4,35.3,54,40.6z"/>
				<path fill="#13120D" stroke="#000000" stroke-width="0.8" stroke-miterlimit="10" d="M48.1,49.7c-0.1,0-0.2,0-0.3,0
					c-1.7-0.1-3-1.2-3.8-3.1c-0.8-1.7-1.1-4.2-0.9-6.8c0.1-2.5,0.8-4.4,1.8-5.8c1.1-1.4,2.6-2.1,4.4-2c1.7,0.1,3,0.9,3.8,2.4
					c0.8,1.5,1.1,3.5,1,6.2C53.9,46,51.4,49.7,48.1,49.7z M49,32.3c-3.3,0-5.3,2.8-5.6,7.6c-0.2,2.6,0.2,5,0.9,6.7
					c0.8,1.8,2,2.8,3.6,2.9c1.6,0.1,3.1-0.8,4.2-2.5c1-1.6,1.7-3.9,1.8-6.4c0.3-5.2-1.3-8.1-4.5-8.3C49.2,32.3,49.1,32.3,49,32.3z"
					/>
			</g>
			<g>
				<path fill="#13120D" stroke="#000000" stroke-width="0.8" stroke-miterlimit="10" d="M50.6,46.6c0-1.7-1.1-3-2.5-3
					c-1.4,0-2.5,1.4-2.5,3c0,1.7,1.1,3,2.5,3C49.5,49.6,50.6,48.2,50.6,46.6z"/>
				<path fill="#13120D" stroke="#000000" stroke-width="0.8" stroke-miterlimit="10" d="M48.1,49.6c-1.4,0-2.5-1.4-2.5-3.1
					c0-1.7,1.1-3.1,2.5-3.1s2.5,1.4,2.5,3.1C50.7,48.3,49.5,49.6,48.1,49.6z M48.1,43.5c-1.4,0-2.5,1.4-2.5,3c0,1.7,1.1,3,2.5,3
					c1.4,0,2.5-1.4,2.5-3C50.6,44.9,49.5,43.5,48.1,43.5z"/>
			</g>
			<g>
				<path fill="#FFFFFF" stroke="#000000" stroke-width="0.8" stroke-miterlimit="10" d="M82.4,43.9c-0.8,5.2-4.4,8.8-7.8,8.3
					c-3.4-0.5-4-5.6-3.1-10.8c0.8-5.2,3.5-7.6,6.8-7C81.7,34.9,83.2,38.7,82.4,43.9z"/>
				<path fill="#13120D" stroke="#000000" stroke-width="0.8" stroke-miterlimit="10" d="M75.3,52.4c-0.2,0-0.5,0-0.7-0.1
					c-1.6-0.3-2.7-1.6-3.2-3.8c-0.4-1.9-0.4-4.4,0-7.2c0.7-4.6,2.9-7.2,6.1-7.2c0.3,0,0.6,0,0.9,0.1c3.4,0.5,5,4.3,4.2,9.7
					c-0.4,2.3-1.3,4.5-2.7,6.1C78.5,51.5,76.8,52.4,75.3,52.4z M77.4,34.4c-3,0-5.1,2.5-5.8,7c-0.4,2.7-0.4,5.2,0,7.1
					c0.5,2.1,1.5,3.3,3,3.6c0.2,0,0.4,0.1,0.6,0.1c3.2,0,6.2-3.6,7-8.2c0.8-5.2-0.7-8.9-3.9-9.4C78,34.4,77.7,34.4,77.4,34.4z"/>
			</g>
			<g>
				<path fill="#13120D" stroke="#000000" stroke-width="0.8" stroke-miterlimit="10" d="M77.9,49.5c0.2-1.7-0.8-3.1-2.2-3.3
					c-1.4-0.1-2.6,1.1-2.8,2.8c-0.2,1.7,0.8,3.1,2.2,3.3C76.5,52.4,77.7,51.2,77.9,49.5z"/>
				<path fill="#13120D" stroke="#000000" stroke-width="0.8" stroke-miterlimit="10" d="M75.3,52.4L75.3,52.4c-0.1,0-0.1,0-0.2,0
					c-1.4-0.1-2.4-1.6-2.2-3.3c0.2-1.6,1.3-2.8,2.6-2.8c0.1,0,0.1,0,0.2,0c1.4,0.1,2.4,1.6,2.2,3.3C77.8,51.1,76.6,52.4,75.3,52.4z
					 M75.5,46.3c-1.3,0-2.4,1.2-2.5,2.8c-0.2,1.7,0.8,3.1,2.1,3.2c0.1,0,0.1,0,0.2,0c1.3,0,2.4-1.2,2.5-2.8c0.2-1.7-0.8-3.1-2.1-3.2
					C75.7,46.3,75.6,46.3,75.5,46.3z"/>
			</g>
			<g>
				<path fill="#F5DFD0" stroke="#000000" stroke-width="0.8" stroke-miterlimit="10" d="M56.5,56.4c2.7-4.2,7.6-4.5,9.8,0.6
					c0,0,1.1,2.4,0.1,3.2c-1,0.8-10.5,0.1-11.3,0C54.4,60.2,56.5,56.4,56.5,56.4z"/>
				<path fill="#13120D" stroke="#000000" stroke-width="0.8" stroke-miterlimit="10" d="M62.8,60.8c-3.1,0-7.2-0.3-7.7-0.4
					c-0.1,0-0.2-0.1-0.2-0.2c-0.3-0.6,1.2-3.3,1.5-3.9l0,0c1.3-2.1,3.2-3.2,5.1-3.2c2.1,0,3.9,1.4,4.9,3.9c0,0.1,1.1,2.5,0.1,3.4
					C66.3,60.5,66,60.8,62.8,60.8z M56.6,56.5c-0.7,1.3-1.6,3.3-1.5,3.6c0,0,0,0,0,0c0.4,0.1,4.5,0.4,7.7,0.4c2.6,0,3.3-0.2,3.5-0.4
					c0.4-0.4,0.4-1.2,0.3-1.8c-0.1-0.7-0.4-1.3-0.4-1.3c-1-2.4-2.7-3.7-4.7-3.7C59.6,53.4,57.9,54.5,56.6,56.5z"/>
			</g>
			<g>
				<path fill="#13120D" stroke="#000000" stroke-width="0.8" stroke-miterlimit="10" d="M61.4,61.4c-1.1,0-0.9,1.8-1.5,3.2
					c-0.4,1-1.5,1.6-1.5,1.6s-0.9,0.3-2.2,0.4c-0.9,0.1-1.5,0-2.2-0.7c-0.7-0.7-3.8-3.4-3.8-3.4s-1.5-2.1-2.7-0.7
					c-1.2,1.4,1.4,1.5,2.2,1.7c0.8,0.2,3.8,3.8,4,4.4c0.2,0.6,2.4,0.6,3.1,0.5c0.6,0,1.3,0.1,1.6,0.4c0.2,0.3,0.3,0.3,0.6,0.7
					c0.3,0.4,0.2,0.9-0.2,1.6c-0.2,0.8-0.1,1.7,0.4,2.5c0.5,0.8,1.4,1,1.4,1s0.6,0.3,2,0c1.4-0.3,1.8-1.6,1.8-1.6s0.6-1.6,0-2.3
					c-0.6-0.7-0.3-1,0-1.5c0.3-0.6,1.2-0.5,1.2-0.5l1.4,0.2l3.1-0.2l4.1-1.5c0,0,2.9-1.3,2.9-1.8c0-0.6-0.7-0.8-1.2-0.6
					c-0.6,0.2-1.5,0.6-1.5,0.6s-1.8,0.7-2.4,1.1c-0.6,0.4-0.8,0.8-1.9,1.2c-1.1,0.4-2.3,0.6-3,0.4c-1.1-0.2-2.4-0.9-3.7-3.2
					C62,63.4,62.5,61.5,61.4,61.4z"/>
				<path fill="#13120D" stroke="#000000" stroke-width="0.8" stroke-miterlimit="10" d="M61.3,74.8c-0.6,0-0.8-0.1-0.9-0.1
					c-0.1,0-0.9-0.2-1.4-1c-0.5-0.8-0.6-1.7-0.4-2.5l0,0c0.4-0.7,0.4-1.2,0.2-1.6c-0.2-0.3-0.3-0.4-0.4-0.5
					c-0.1-0.1-0.1-0.1-0.2-0.2c-0.2-0.2-0.7-0.4-1.3-0.4c-0.1,0-0.1,0-0.2,0c-0.1,0-0.3,0-0.5,0c-0.6,0-2.4,0-2.6-0.6
					c-0.2-0.6-3.1-4.2-3.9-4.4c-0.1,0-0.3-0.1-0.5-0.1c-0.8-0.1-1.8-0.3-2-0.8c-0.1-0.2,0-0.5,0.3-0.8c0.3-0.3,0.6-0.5,0.9-0.5
					c0.9,0,1.8,1.1,1.8,1.2c0,0,3.1,2.7,3.8,3.4c0.6,0.6,1.1,0.7,1.7,0.7c0.1,0,0.3,0,0.4,0c1.3-0.1,2.2-0.4,2.2-0.4
					c0,0,1-0.6,1.5-1.5c0.2-0.5,0.3-1,0.4-1.5c0.2-0.9,0.3-1.7,1.1-1.7c0.6,0,0.8,0.6,1,1.4c0.2,0.6,0.3,1.3,0.8,1.8
					c1.1,1.9,2.3,3,3.7,3.2c0.2,0.1,0.5,0.1,0.8,0.1c0.6,0,1.4-0.2,2.2-0.5c0.8-0.3,1.1-0.6,1.4-0.8c0.2-0.1,0.3-0.2,0.5-0.4
					c0.6-0.4,2.4-1.1,2.4-1.1c0,0,1-0.4,1.5-0.6c0.1,0,0.3-0.1,0.4-0.1c0.3,0,0.6,0.1,0.7,0.3c0.1,0.1,0.2,0.3,0.2,0.5
					c0,0.6-2.8,1.8-2.9,1.9l-4.1,1.5l-3.1,0.2l-1.4-0.2c0,0,0,0-0.1,0c-0.2,0-0.8,0-1,0.5c0,0.1-0.1,0.2-0.1,0.2
					c-0.2,0.4-0.4,0.7,0.2,1.3c0.3,0.3,0.3,0.8,0.2,1.5c-0.1,0.5-0.2,0.9-0.2,0.9c0,0-0.5,1.4-1.9,1.6
					C62.1,74.7,61.7,74.8,61.3,74.8z M58.7,71.2c-0.2,0.8-0.1,1.7,0.4,2.4c0.5,0.8,1.3,0.9,1.3,0.9c0,0,0.3,0.1,0.9,0.1
					c0.3,0,0.7,0,1.1-0.1c1.4-0.3,1.8-1.6,1.8-1.6c0,0,0.6-1.6,0-2.3c-0.5-0.6-0.4-0.9-0.2-1.3c0-0.1,0.1-0.1,0.1-0.2
					c0.2-0.5,0.8-0.5,1.1-0.5c0.1,0,0.1,0,0.1,0l1.4,0.2l3.1-0.2l4.1-1.5c0.8-0.4,2.8-1.4,2.9-1.8c0-0.2,0-0.3-0.1-0.4
					c-0.2-0.2-0.4-0.3-0.7-0.3c-0.1,0-0.3,0-0.4,0.1c-0.6,0.2-1.5,0.6-1.5,0.6c0,0-1.8,0.7-2.4,1.1c-0.2,0.1-0.3,0.2-0.5,0.4
					c-0.3,0.3-0.7,0.5-1.4,0.8C69,67.8,68.2,68,67.6,68c-0.3,0-0.6,0-0.8-0.1c-1.4-0.3-2.6-1.3-3.7-3.3c-0.5-0.6-0.6-1.3-0.8-1.9
					c-0.2-0.7-0.3-1.3-0.9-1.3c0,0,0,0,0,0c-0.7,0-0.8,0.7-1,1.6c-0.1,0.5-0.2,1-0.4,1.5c-0.4,1-1.5,1.6-1.5,1.6
					c0,0-0.9,0.3-2.2,0.4c-0.2,0-0.3,0-0.4,0c-0.6,0-1.2-0.1-1.8-0.7c-0.7-0.7-3.7-3.4-3.8-3.4c0,0-0.8-1.2-1.7-1.2
					c-0.3,0-0.6,0.2-0.9,0.4c-0.3,0.3-0.4,0.5-0.3,0.8c0.2,0.5,1.2,0.7,1.9,0.8c0.2,0,0.4,0.1,0.5,0.1c0.8,0.2,3.8,3.8,4,4.4
					c0.1,0.4,1.5,0.5,2.5,0.5c0.2,0,0.4,0,0.5,0c0.1,0,0.1,0,0.2,0c0.6,0,1.2,0.2,1.4,0.4c0.1,0.1,0.1,0.2,0.2,0.2
					c0.1,0.1,0.2,0.2,0.4,0.5C59.2,70,59.1,70.5,58.7,71.2z"/>
			</g>
			<g>
				<path fill="#FFFFFF" stroke="#000000" stroke-width="0.8" stroke-miterlimit="10" d="M63,67.9c0,0.5-0.8,0.9-1.8,0.9
					c-1,0-1.8-0.4-1.8-0.9c0-0.5,0.8-0.9,1.8-0.9C62.2,67,63,67.4,63,67.9z"/>
			</g>
		</g>
	</g>
</g>
</svg>
